name: Palatino 24
spacing: proportional
bounding-box: 28x25
family: Palatino
source-format: [Mac] FONT
point-size: 24
encoding: mac-roman
default-char: missing
ascent: 18
descent: 7
line-height: 25
converter: monobit v0.40
source-name: ._System 6.0.8 Fonts~
shift-up: -7

0x00:
    -

    left-bearing: -2
    right-bearing: 2


0x09:
    -

    left-bearing: -2
    right-bearing: 8


0x0d:
    -

    left-bearing: -2
    right-bearing: 2


0x20:
u+0020:
    .
    .
    .
    .
    .
    .
    .
    .
    .
    .
    .
    .
    .
    .
    .
    .
    .
    .
    .
    .
    .
    .
    .
    .
    .

    right-bearing: 5
    right-kerning:
        0x41 -0.88
        0x59 -0.43


0x21:
u+0021:
    ..
    @@
    @@
    @@
    @@
    @@
    @@
    @@
    @@
    @@
    @@
    @@
    @@
    @@
    ..
    ..
    @@
    @@
    ..
    ..
    ..
    ..
    ..
    ..
    ..

    left-bearing: 1
    right-bearing: 1


0x22:
u+0022:
    ......
    @@..@@
    @@..@@
    @@..@@
    @@..@@
    @@..@@
    @@..@@
    ......
    ......
    ......
    ......
    ......
    ......
    ......
    ......
    ......
    ......
    ......
    ......
    ......
    ......
    ......
    ......
    ......
    ......

    left-bearing: 1
    right-bearing: 1


0x23:
u+0023:
    .............
    .............
    ....@@...@@..
    ....@@...@@..
    ....@@...@@..
    ....@@...@@..
    ....@@...@@..
    .@@@@@@@@@@@@
    ...@@...@@...
    ...@@...@@...
    ...@@...@@...
    ...@@...@@...
    @@@@@@@@@@@@.
    ..@@...@@....
    ..@@...@@....
    ..@@...@@....
    ..@@...@@....
    ..@@...@@....
    .............
    .............
    .............
    .............
    .............
    .............
    .............

    left-bearing: 1
    right-bearing: 1


0x24:
u+0024:
    ..........
    ....@.....
    ..@@@@@@..
    .@@.@..@@.
    @@..@...@.
    @@..@...@.
    @@..@.....
    @@..@.....
    @@@.@.....
    .@@@@@....
    ..@@@@@@..
    ....@@@@@.
    ....@..@@@
    ....@...@@
    ....@...@@
    @...@...@@
    @@..@..@@.
    .@@@@@@@..
    ....@.....
    ....@.....
    ..........
    ..........
    ..........
    ..........
    ..........

    left-bearing: 1
    right-bearing: 1


0x25:
u+0025:
    ................
    ...@@@....@@....
    .@@@..@..@.@....
    .@@...@@@.@@....
    @@....@...@.....
    @@....@..@@.....
    @@...@...@......
    @@..@@..@@......
    .@@@....@.......
    .......@@.......
    .......@....@@@.
    ......@@..@@@..@
    ......@...@@...@
    .....@@..@@....@
    .....@...@@....@
    ....@@...@@...@.
    ....@....@@..@@.
    ....@.....@@@...
    ................
    ................
    ................
    ................
    ................
    ................
    ................

    left-bearing: 1
    right-bearing: 1


0x26:
u+0026:
    ................
    .....@@@@.......
    ....@@.@@@......
    ...@@...@@......
    ...@@...@@......
    ...@@..@@.......
    ....@.@@........
    ....@@@.........
    ...@@@....@@@@@@
    ..@@.@@.....@@..
    .@@..@@@....@@..
    .@....@@....@...
    @@.....@@...@...
    @@.....@@@.@....
    @@......@@@.....
    @@@.....@@@@...@
    .@@@@@@@@.@@@@@.
    ..@@@@@....@@@..
    ................
    ................
    ................
    ................
    ................
    ................
    ................

    left-bearing: 2


0x27:
u+0027:
    ..
    @@
    @@
    @@
    @@
    @@
    @@
    ..
    ..
    ..
    ..
    ..
    ..
    ..
    ..
    ..
    ..
    ..
    ..
    ..
    ..
    ..
    ..
    ..
    ..

    left-bearing: 1
    right-bearing: 1


0x28:
u+0028:
    .....
    ....@
    ...@.
    ..@@.
    .@@..
    .@@..
    .@@..
    @@...
    @@...
    @@...
    @@...
    @@...
    @@...
    @@...
    @@...
    .@@..
    .@@..
    .@@..
    ..@@.
    ...@.
    ....@
    .....
    .....
    .....
    .....

    left-bearing: 1
    right-bearing: 1


0x29:
u+0029:
    .....
    @....
    .@...
    .@@..
    ..@@.
    ..@@.
    ..@@.
    ...@@
    ...@@
    ...@@
    ...@@
    ...@@
    ...@@
    ...@@
    ...@@
    ..@@.
    ..@@.
    ..@@.
    .@@..
    .@...
    @....
    .....
    .....
    .....
    .....

    left-bearing: 1
    right-bearing: 1


0x2a:
u+002a:
    .......
    ...@@..
    ...@@..
    @@.@...
    @@@@@@@
    ..@@.@@
    @@.@...
    @@.@@..
    ...@@..
    .......
    .......
    .......
    .......
    .......
    .......
    .......
    .......
    .......
    .......
    .......
    .......
    .......
    .......
    .......
    .......

    left-bearing: 1
    right-bearing: 1


0x2b:
u+002b:
    ............
    ............
    ............
    ............
    ............
    ............
    .....@@.....
    .....@@.....
    .....@@.....
    .....@@.....
    .....@@.....
    @@@@@@@@@@@@
    .....@@.....
    .....@@.....
    .....@@.....
    .....@@.....
    .....@@.....
    ............
    ............
    ............
    ............
    ............
    ............
    ............
    ............

    left-bearing: 1
    right-bearing: 1


0x2c:
u+002c:
    ...
    ...
    ...
    ...
    ...
    ...
    ...
    ...
    ...
    ...
    ...
    ...
    ...
    ...
    ...
    ...
    .@@
    .@@
    .@@
    .@.
    @@.
    @..
    ...
    ...
    ...

    right-bearing: 1


0x2d:
u+002d:
    ......
    ......
    ......
    ......
    ......
    ......
    ......
    ......
    ......
    ......
    ......
    @@@@@@
    ......
    ......
    ......
    ......
    ......
    ......
    ......
    ......
    ......
    ......
    ......
    ......
    ......

    left-bearing: 1
    right-bearing: 1


0x2e:
u+002e:
    ..
    ..
    ..
    ..
    ..
    ..
    ..
    ..
    ..
    ..
    ..
    ..
    ..
    ..
    ..
    ..
    @@
    @@
    ..
    ..
    ..
    ..
    ..
    ..
    ..

    left-bearing: 1
    right-bearing: 1


0x2f:
u+002f:
    ........
    ......@@
    ......@@
    ......@@
    .....@@.
    .....@@.
    .....@@.
    ....@@..
    ....@@..
    ....@@..
    ...@@...
    ...@@...
    ...@@...
    ..@@....
    ..@@....
    ..@@....
    .@@.....
    .@@.....
    .@@.....
    @@......
    @@......
    @@......
    ........
    ........
    ........

    left-bearing: 3
    right-bearing: 4


0x30:
u+0030:
    ..........
    ...@@@@@..
    .@@...@@@.
    @@.....@@@
    @@......@@
    @@......@@
    @@......@@
    @@......@@
    @@......@@
    @@......@@
    @@......@@
    @@......@@
    @@......@@
    @@......@@
    @@......@@
    @@@.....@@
    .@@@...@@.
    ..@@@@@@..
    ..........
    ..........
    ..........
    ..........
    ..........
    ..........
    ..........

    left-bearing: 1
    right-bearing: 1


0x31:
u+0031:
    ........
    ....@@..
    ...@@@..
    ..@@@@..
    .@@.@@..
    @@..@@..
    ....@@..
    ....@@..
    ....@@..
    ....@@..
    ....@@..
    ....@@..
    ....@@..
    ....@@..
    ....@@..
    ....@@..
    ....@@..
    ..@@@@@@
    ........
    ........
    ........
    ........
    ........
    ........
    ........

    left-bearing: 1
    right-bearing: 3
    right-kerning: 0x31 -1.32


0x32:
u+0032:
    ..........
    ...@@@@...
    .@@@@@@@..
    @@....@@@.
    @......@@.
    @......@@.
    .......@@.
    .......@@.
    ......@@..
    ......@@..
    .....@@...
    ....@@....
    ...@@.....
    ..@@......
    .@@.......
    @@........
    @@@@@@@@@@
    @@@@@@@@@@
    ..........
    ..........
    ..........
    ..........
    ..........
    ..........
    ..........

    left-bearing: 1
    right-bearing: 1


0x33:
u+0033:
    ..........
    ..@@@@@...
    .@@@@@@@..
    @@....@@@.
    @......@@.
    @......@@.
    .......@@.
    ......@@..
    ....@@@...
    ..@@@@@@..
    ......@@@.
    .......@@@
    ........@@
    ........@@
    @.......@@
    @......@@.
    @@....@@@.
    .@@@@@@...
    ..........
    ..........
    ..........
    ..........
    ..........
    ..........
    ..........

    left-bearing: 1
    right-bearing: 1


0x34:
u+0034:
    ..........
    .....@@@..
    .....@@@..
    ....@@@@..
    ....@.@@..
    ...@@.@@..
    ...@..@@..
    ..@@..@@..
    ..@...@@..
    .@@...@@..
    .@....@@..
    @@....@@..
    @@@@@@@@@@
    @@@@@@@@@@
    ......@@..
    ......@@..
    ......@@..
    ....@@@@@@
    ..........
    ..........
    ..........
    ..........
    ..........
    ..........
    ..........

    left-bearing: 1
    right-bearing: 1


0x35:
u+0035:
    ..........
    .@@@@@@@@.
    .@@@@@@@@.
    .@........
    .@........
    .@........
    .@........
    .@.@@@@...
    .@@@@@@@@.
    .@....@@@.
    .......@@@
    ........@@
    ........@@
    ........@@
    @.......@@
    @......@@.
    @@....@@@.
    .@@@@@@...
    ..........
    ..........
    ..........
    ..........
    ..........
    ..........
    ..........

    left-bearing: 1
    right-bearing: 1


0x36:
u+0036:
    ..........
    ......@@..
    ....@@....
    ...@@.....
    ..@@......
    ..@@......
    .@@.......
    .@@..@@@..
    @@.@@@@@@.
    @@@....@@@
    @@......@@
    @@......@@
    @@......@@
    @@......@@
    @@......@@
    .@.....@@.
    .@@@..@@@.
    ...@@@@...
    ..........
    ..........
    ..........
    ..........
    ..........
    ..........
    ..........

    left-bearing: 1
    right-bearing: 1


0x37:
u+0037:
    ...........
    @@@@@@@@@@@
    @@@@@@@@@@@
    @.......@@.
    @.......@@.
    .......@@..
    .......@@..
    ......@@...
    ......@@...
    .....@@....
    .....@@....
    ....@@.....
    ....@@.....
    ...@@......
    ...@@......
    ..@@@......
    ..@@.......
    ..@@.......
    ...........
    ...........
    ...........
    ...........
    ...........
    ...........
    ...........

    left-bearing: 1


0x38:
u+0038:
    ..........
    ...@@@@...
    .@@....@@.
    @@......@@
    @@......@@
    @@......@@
    @@@.....@.
    .@@@...@..
    ..@@@@@...
    ..@@@@@@..
    .@@..@@@@.
    @@.....@@@
    @@......@@
    @@......@@
    @@......@@
    @@......@@
    .@@....@@.
    ...@@@@...
    ..........
    ..........
    ..........
    ..........
    ..........
    ..........
    ..........

    left-bearing: 1
    right-bearing: 1


0x39:
u+0039:
    ..........
    ...@@@@...
    .@@@..@@@.
    .@@.....@.
    @@......@@
    @@......@@
    @@......@@
    @@......@@
    @@......@@
    @@@....@@@
    .@@@@@@.@@
    ..@@@..@@.
    .......@@.
    ......@@..
    ......@@..
    .....@@...
    ....@@....
    ..@@......
    ..........
    ..........
    ..........
    ..........
    ..........
    ..........
    ..........

    left-bearing: 1
    right-bearing: 1


0x3a:
u+003a:
    ..
    ..
    ..
    ..
    ..
    ..
    ..
    ..
    @@
    @@
    ..
    ..
    ..
    ..
    ..
    ..
    @@
    @@
    ..
    ..
    ..
    ..
    ..
    ..
    ..

    left-bearing: 1
    right-bearing: 1


0x3b:
u+003b:
    ...
    ...
    ...
    ...
    ...
    ...
    ...
    ...
    .@@
    .@@
    ...
    ...
    ...
    ...
    ...
    ...
    .@@
    .@@
    .@@
    .@.
    @@.
    @..
    ...
    ...
    ...

    right-bearing: 1


0x3c:
u+003c:
    ...........
    ...........
    ...........
    ...........
    ...........
    ...........
    .........@@
    .......@@@.
    .....@@@...
    ...@@@.....
    .@@@.......
    @@.........
    .@@@.......
    ...@@@.....
    .....@@@...
    .......@@@.
    .........@@
    ...........
    ...........
    ...........
    ...........
    ...........
    ...........
    ...........
    ...........

    left-bearing: 1
    right-bearing: 1


0x3d:
u+003d:
    ............
    ............
    ............
    ............
    ............
    ............
    ............
    ............
    ............
    @@@@@@@@@@@@
    ............
    ............
    ............
    @@@@@@@@@@@@
    ............
    ............
    ............
    ............
    ............
    ............
    ............
    ............
    ............
    ............
    ............

    left-bearing: 1
    right-bearing: 1


0x3e:
u+003e:
    ...........
    ...........
    ...........
    ...........
    ...........
    ...........
    @@.........
    .@@@.......
    ...@@@.....
    .....@@@...
    .......@@@.
    .........@@
    .......@@@.
    .....@@@...
    ...@@@.....
    .@@@.......
    @@.........
    ...........
    ...........
    ...........
    ...........
    ...........
    ...........
    ...........
    ...........

    left-bearing: 1
    right-bearing: 1


0x3f:
u+003f:
    ........
    .@@@@@@.
    @@...@@@
    @.....@@
    ......@@
    ......@@
    ......@@
    .....@@.
    ....@@..
    ...@@...
    ..@@....
    ..@@....
    ..@@....
    ...@....
    ........
    ........
    ..@@....
    ..@@....
    ........
    ........
    ........
    ........
    ........
    ........
    ........

    right-bearing: 1


0x40:
u+0040:
    .................
    ......@@@@@@@....
    ....@@@.....@@@..
    ...@@.........@@.
    ..@.....@@@....@.
    ..@...@@...@@...@
    .@...@@....@@...@
    .@...@@....@@...@
    @...@@.....@@...@
    @...@@....@@....@
    @...@@....@@...@.
    @...@@...@@@...@.
    @...@@..@.@@..@..
    .@...@@@..@@@@...
    .@...............
    .@@...........@..
    ..@@@.......@@...
    ....@@@@@@@@.....
    .................
    .................
    .................
    .................
    .................
    .................
    .................

    left-bearing: 1
    right-bearing: 1


0x41:
u+0041:
    ...................
    .........@.........
    ........@@@........
    ........@@@........
    .......@@@@@.......
    .......@..@@.......
    ......@@..@@@......
    ......@....@@......
    .....@@....@@@.....
    .....@......@@.....
    ....@@......@@@....
    ....@@@@@@@@@@@....
    ...@@........@@@...
    ...@..........@@...
    ..@@..........@@@..
    ..@............@@..
    .@@............@@@.
    @@@@..........@@@@@
    ...................
    ...................
    ...................
    ...................
    ...................
    ...................
    ...................

    left-bearing: 1
    right-kerning:
        0x20 -1.32
        0x54 -1.78
        0x56 -2.66
        0x57 -1.78
        0x59 -2.66
        0x76 -2.2
        0x77 -1.78
        0x79 -1.78
        0xd5 -1.78


0x42:
u+0042:
    .............
    @@@@@@@@@@...
    ..@@.....@@@.
    ..@@......@@.
    ..@@......@@.
    ..@@......@@.
    ..@@......@@.
    ..@@.....@@..
    ..@@@@@@@@...
    ..@@.....@@@.
    ..@@......@@.
    ..@@.......@@
    ..@@.......@@
    ..@@.......@@
    ..@@.......@@
    ..@@......@@.
    ..@@.....@@@.
    @@@@@@@@@@...
    .............
    .............
    .............
    .............
    .............
    .............
    .............

    left-bearing: 2
    right-bearing: 1


0x43:
u+0043:
    ................
    .....@@@@@@@@@@.
    ...@@@.......@@.
    ..@@..........@.
    .@@...........@.
    .@@.............
    @@..............
    @@..............
    @@..............
    @@..............
    @@..............
    @@..............
    @@@.............
    @@@.............
    .@@@............
    .@@@..........@@
    ..@@@@......@@@.
    ....@@@@@@@@@...
    ................
    ................
    ................
    ................
    ................
    ................
    ................

    left-bearing: 2


0x44:
u+0044:
    .................
    @@@@@@@@@@@@@....
    ..@@.......@@@@..
    ..@@.........@@@.
    ..@@.........@@@.
    ..@@..........@@@
    ..@@..........@@@
    ..@@...........@@
    ..@@...........@@
    ..@@...........@@
    ..@@...........@@
    ..@@...........@@
    ..@@...........@@
    ..@@..........@@.
    ..@@..........@@.
    ..@@.........@@..
    ..@@.......@@@...
    @@@@@@@@@@@@.....
    .................
    .................
    .................
    .................
    .................
    .................
    .................

    left-bearing: 2
    right-bearing: 1


0x45:
u+0045:
    ............
    @@@@@@@@@@@@
    ..@@......@@
    ..@@.......@
    ..@@.......@
    ..@@........
    ..@@........
    ..@@.....@..
    ..@@.....@..
    ..@@@@@@@@..
    ..@@.....@..
    ..@@.....@..
    ..@@........
    ..@@........
    ..@@.......@
    ..@@.......@
    ..@@......@@
    @@@@@@@@@@@@
    ............
    ............
    ............
    ............
    ............
    ............
    ............

    left-bearing: 2
    right-bearing: 1


0x46:
u+0046:
    ............
    @@@@@@@@@@@@
    ..@@......@@
    ..@@.......@
    ..@@.......@
    ..@@........
    ..@@........
    ..@@.....@..
    ..@@.....@..
    ..@@@@@@@@..
    ..@@.....@..
    ..@@.....@..
    ..@@........
    ..@@........
    ..@@........
    ..@@........
    ..@@........
    @@@@@@......
    ............
    ............
    ............
    ............
    ............
    ............
    ............

    left-bearing: 2
    right-kerning:
        0x2c -2.2
        0x2e -2.2
        0x41 -1.78


0x47:
u+0047:
    ................
    .....@@@@@@@@@@.
    ...@@@.......@@.
    ..@@..........@.
    .@@...........@.
    .@@.............
    @@..............
    @@..............
    @@..............
    @@..............
    @@..............
    @@........@@@@@@
    @@@..........@@.
    @@@..........@@.
    .@@@.........@@.
    .@@@.........@@.
    ..@@@@.....@@@@.
    ....@@@@@@@@....
    ................
    ................
    ................
    ................
    ................
    ................
    ................

    left-bearing: 2


0x48:
u+0048:
    .................
    @@@@@@.....@@@@@@
    ..@@.........@@..
    ..@@.........@@..
    ..@@.........@@..
    ..@@.........@@..
    ..@@.........@@..
    ..@@.........@@..
    ..@@@@@@@@@@@@@..
    ..@@.........@@..
    ..@@.........@@..
    ..@@.........@@..
    ..@@.........@@..
    ..@@.........@@..
    ..@@.........@@..
    ..@@.........@@..
    ..@@.........@@..
    @@@@@@.....@@@@@@
    .................
    .................
    .................
    .................
    .................
    .................
    .................

    left-bearing: 2
    right-bearing: 1


0x49:
u+0049:
    ......
    @@@@@@
    ..@@..
    ..@@..
    ..@@..
    ..@@..
    ..@@..
    ..@@..
    ..@@..
    ..@@..
    ..@@..
    ..@@..
    ..@@..
    ..@@..
    ..@@..
    ..@@..
    ..@@..
    @@@@@@
    ......
    ......
    ......
    ......
    ......
    ......
    ......

    left-bearing: 2
    right-bearing: 1


0x4a:
u+004a:
    .......
    .@@@@@@
    ...@@..
    ...@@..
    ...@@..
    ...@@..
    ...@@..
    ...@@..
    ...@@..
    ...@@..
    ...@@..
    ...@@..
    ...@@..
    ...@@..
    ...@@..
    ...@@..
    ...@@..
    ...@@..
    ...@@..
    ...@@..
    ...@...
    @@@....
    @@.....
    .......
    .......

    left-bearing: 1
    right-bearing: 1


0x4b:
u+004b:
    ................
    @@@@@@.....@@@..
    ..@@......@@....
    ..@@.....@@.....
    ..@@....@@......
    ..@@...@@.......
    ..@@..@@........
    ..@@.@@.........
    ..@@@@..........
    ..@@@@@.........
    ..@@.@@@........
    ..@@..@@@.......
    ..@@...@@@......
    ..@@....@@@.....
    ..@@.....@@@....
    ..@@......@@@...
    ..@@.......@@@..
    @@@@@@......@@@@
    ................
    ................
    ................
    ................
    ................
    ................
    ................

    left-bearing: 2


0x4c:
u+004c:
    ............
    @@@@@@......
    ..@@........
    ..@@........
    ..@@........
    ..@@........
    ..@@........
    ..@@........
    ..@@........
    ..@@........
    ..@@........
    ..@@........
    ..@@........
    ..@@........
    ..@@.......@
    ..@@.......@
    ..@@......@@
    @@@@@@@@@@@@
    ............
    ............
    ............
    ............
    ............
    ............
    ............

    left-bearing: 2
    right-kerning:
        0x20 -0.88
        0x54 -1.78
        0x56 -2.2
        0x57 -1.78
        0x59 -2.2
        0x79 -1.32
        0xd5 -1.78


0x4d:
u+004d:
    .....................
    @@@@..............@@@
    ..@@@............@@@.
    ..@@@............@@@.
    ..@@@@..........@@@@.
    ..@.@@..........@.@@.
    ..@.@@@........@@.@@.
    ..@..@@........@..@@.
    ..@..@@@......@@..@@.
    ..@...@@......@...@@.
    ..@...@@@....@@...@@.
    ..@....@@....@....@@.
    ..@....@@@..@@....@@.
    ..@.....@@..@.....@@.
    ..@.....@@@@@.....@@.
    ..@......@@@......@@.
    ..@......@@@......@@.
    @@@@@.....@.....@@@@@
    .....................
    .....................
    .....................
    .....................
    .....................
    .....................
    .....................

    left-bearing: 2
    right-bearing: 1


0x4e:
u+004e:
    ..................
    @@@@.........@@@@@
    ..@@@..........@..
    ..@@@@.........@..
    ..@.@@@........@..
    ..@..@@@.......@..
    ..@...@@@......@..
    ..@...@@@......@..
    ..@....@@@.....@..
    ..@.....@@@....@..
    ..@......@@@...@..
    ..@.......@@@..@..
    ..@.......@@@..@..
    ..@........@@@.@..
    ..@.........@@@@..
    ..@..........@@@..
    ..@...........@@..
    @@@@@..........@..
    ..................
    ..................
    ..................
    ..................
    ..................
    ..................
    ..................

    left-bearing: 2
    right-bearing: 1


0x4f:
u+004f:
    .................
    .....@@@@@@@@....
    ...@@@.....@@@@..
    ..@@.........@@@.
    .@@..........@@@.
    .@@...........@@@
    @@............@@@
    @@.............@@
    @@.............@@
    @@.............@@
    @@.............@@
    @@.............@@
    @@@............@@
    @@@...........@@.
    .@@@..........@@.
    .@@@.........@@..
    ..@@@@.....@@@...
    ....@@@@@@@@.....
    .................
    .................
    .................
    .................
    .................
    .................
    .................

    left-bearing: 2
    right-bearing: 1


0x50:
u+0050:
    ............
    @@@@@@@@@@@.
    ..@@.....@@@
    ..@@......@@
    ..@@......@@
    ..@@......@@
    ..@@......@@
    ..@@.....@@.
    ..@@....@@..
    ..@@.@@@....
    ..@@........
    ..@@........
    ..@@........
    ..@@........
    ..@@........
    ..@@........
    ..@@........
    @@@@@@......
    ............
    ............
    ............
    ............
    ............
    ............
    ............

    left-bearing: 2
    right-kerning:
        0x20 -0.43
        0x2c -3.09
        0x2e -3.09
        0x41 -2.2


0x51:
u+0051:
    .................
    .....@@@@@@@@....
    ...@@@.....@@@@..
    ..@@.........@@@.
    .@@..........@@@.
    .@@...........@@@
    @@............@@@
    @@.............@@
    @@.............@@
    @@.............@@
    @@.............@@
    @@.............@@
    @@@............@@
    @@@...........@@.
    .@@@..........@@.
    .@@@.........@@..
    ..@@@@.....@@@...
    ....@@@@@@@@.....
    .......@@........
    .....@@@@@@@@....
    ....@@....@@@@@@@
    .............@@@.
    .................
    .................
    .................

    left-bearing: 2
    right-bearing: 1


0x52:
u+0052:
    ...............
    @@@@@@@@@@@....
    ..@@.....@@@...
    ..@@......@@...
    ..@@......@@...
    ..@@......@@...
    ..@@......@@...
    ..@@.....@@....
    ..@@....@@.....
    ..@@.@@@.......
    ..@@..@@@......
    ..@@...@@@.....
    ..@@....@@@....
    ..@@.....@@....
    ..@@.....@@@...
    ..@@......@@@..
    ..@@.......@@@.
    @@@@@@......@@@
    ...............
    ...............
    ...............
    ...............
    ...............
    ...............
    ...............

    left-bearing: 2
    right-kerning:
        0x54 -0.88
        0x56 -1.32
        0x57 -0.88
        0x59 -0.88
        0x79 -0.88


0x53:
u+0053:
    ...........
    ...@@@@@@@.
    .@@.....@@.
    .@.......@.
    @@.......@.
    @@.........
    @@.........
    @@@........
    .@@@@@.....
    ..@@@@@@@..
    .....@@@@@.
    ........@@@
    .........@@
    .........@@
    @........@.
    @.......@@.
    @@.....@@..
    @@@@@@@....
    ...........
    ...........
    ...........
    ...........
    ...........
    ...........
    ...........

    left-bearing: 2
    right-bearing: 1


0x54:
u+0054:
    ..............
    @@@@@@@@@@@@@@
    @@....@@....@@
    @.....@@.....@
    @.....@@.....@
    ......@@......
    ......@@......
    ......@@......
    ......@@......
    ......@@......
    ......@@......
    ......@@......
    ......@@......
    ......@@......
    ......@@......
    ......@@......
    ......@@......
    ....@@@@@@....
    ..............
    ..............
    ..............
    ..............
    ..............
    ..............
    ..............

    left-bearing: 1
    right-kerning:
        0x2c -1.78
        0x2d -1.32
        0x2e -1.78
        0x3a -1.32
        0x3b -1.32
        0x41 -1.78
        0x4f -0.43
        0x61 -2.2
        0x63 -2.66
        0x65 -2.2
        0x69 -1.32
        0x6f -2.2
        0x72 -2.16
        0x73 -2.16
        0x75 -2.16
        0x77 -2.16
        0x79 -2.16


0x55:
u+0055:
    .................
    @@@@@@......@@@@@
    ..@@..........@..
    ..@@..........@..
    ..@@..........@..
    ..@@..........@..
    ..@@..........@..
    ..@@..........@..
    ..@@..........@..
    ..@@..........@..
    ..@@..........@..
    ..@@..........@..
    ..@@..........@..
    ..@@@.........@..
    ..@@@........@@..
    ...@@@.......@...
    ...@@@@@...@@@...
    .....@@@@@@@.....
    .................
    .................
    .................
    .................
    .................
    .................
    .................

    left-bearing: 2
    right-bearing: 1


0x56:
u+0056:
    ................
    @@@@@@.....@@@@@
    ..@@.........@..
    ..@@.........@..
    ...@@.......@@..
    ...@@.......@...
    ...@@.......@...
    ....@@.....@@...
    ....@@.....@....
    ....@@.....@....
    .....@@...@@....
    .....@@...@.....
    .....@@...@.....
    ......@@.@@.....
    ......@@.@......
    ......@@.@......
    .......@@.......
    .......@@.......
    ................
    ................
    ................
    ................
    ................
    ................
    ................

    left-bearing: 1
    right-kerning:
        0x2c -3.09
        0x2d -1.78
        0x2e -3.09
        0x3a -1.32
        0x3b -1.32
        0x41 -2.66
        0x61 -2.2
        0x65 -2.66
        0x69 -1.32
        0x6f -2.66
        0x72 -2.2
        0x75 -2.2
        0x79 -2.2


0x57:
u+0057:
    .........................
    @@@@@@......@.......@@@@@
    ..@@........@@........@..
    ..@@.......@@@.......@@..
    ..@@.......@@@.......@...
    ...@@......@.@@......@...
    ...@@.....@@.@@.....@@...
    ...@@.....@..@@.....@....
    ....@@....@...@@....@....
    ....@@...@@...@@...@@....
    ....@@...@....@@...@.....
    .....@@..@.....@@..@.....
    .....@@.@@.....@@.@@.....
    .....@@.@......@@.@......
    ......@@@.......@@@......
    ......@@@.......@@@......
    ......@@........@@.......
    .......@.........@.......
    .........................
    .........................
    .........................
    .........................
    .........................
    .........................
    .........................

    left-bearing: 1
    right-kerning:
        0x2c -2.2
        0x2d -1.32
        0x2e -2.2
        0x3a -0.43
        0x3b -0.43
        0x41 -2.2
        0x61 -2.2
        0x65 -2.2
        0x69 -1.32
        0x6f -2.2
        0x72 -1.78
        0x75 -1.2
        0x79 -1.2


0x58:
u+0058:
    ................
    @@@@@.....@@@@@.
    .@@@........@...
    ..@@@......@@...
    ...@@@.....@....
    ....@@....@@....
    ....@@@...@.....
    .....@@@.@@.....
    ......@@@@......
    .....@@@@@......
    .....@..@@......
    ....@@..@@@.....
    ....@....@@@....
    ...@@.....@@....
    ...@......@@@...
    ..@@.......@@@..
    ..@.........@@@.
    @@@@@......@@@@@
    ................
    ................
    ................
    ................
    ................
    ................
    ................

    left-bearing: 1


0x59:
u+0059:
    .................
    @@@@..........@@@
    ..@@@.........@@.
    ...@@@.......@@..
    ....@@......@@...
    .....@@.....@....
    .....@@@...@@....
    ......@@..@@.....
    .......@@@@......
    .......@@@@......
    ........@@.......
    ........@@.......
    ........@@.......
    ........@@.......
    ........@@.......
    ........@@.......
    ........@@.......
    ......@@@@@@.....
    .................
    .................
    .................
    .................
    .................
    .................
    .................

    right-kerning:
        0x20 -0.43
        0x2c -2.66
        0x2d -2.2
        0x2e -2.66
        0x3a -1.78
        0x3b -1.78
        0x41 -2.2
        0x61 -2.2
        0x65 -2.2
        0x69 -1.32
        0x6f -2.2
        0x70 -2.66
        0x71 -2.16
        0x75 -2.16
        0x76 -2.16


0x5a:
u+005a:
    ................
    .@@@@@@@@@@@@@@@
    .@..........@@@.
    .@.........@@@..
    ..........@@@...
    .........@@@....
    .........@@.....
    ........@@@.....
    .......@@@......
    ......@@@.......
    ......@@........
    .....@@@........
    ....@@@.........
    ...@@@..........
    ...@@...........
    ..@@@.........@.
    .@@@..........@.
    @@@@@@@@@@@@@@@.
    ................
    ................
    ................
    ................
    ................
    ................
    ................

    left-bearing: 1


0x5b:
u+005b:
    ....
    @@@@
    @@..
    @@..
    @@..
    @@..
    @@..
    @@..
    @@..
    @@..
    @@..
    @@..
    @@..
    @@..
    @@..
    @@..
    @@..
    @@..
    @@..
    @@..
    @@@@
    ....
    ....
    ....
    ....

    left-bearing: 1
    right-bearing: 1


0x5c:
u+005c:
    @@........
    @@........
    .@@.......
    .@@.......
    ..@@......
    ..@@......
    ...@@.....
    ...@@.....
    ....@@....
    ....@@....
    .....@@...
    .....@@...
    ......@@..
    ......@@..
    .......@@.
    .......@@.
    ........@@
    ........@@
    ..........
    ..........
    ..........
    ..........
    ..........
    ..........
    ..........

    left-bearing: 2
    right-bearing: 2


0x5d:
u+005d:
    ....
    @@@@
    ..@@
    ..@@
    ..@@
    ..@@
    ..@@
    ..@@
    ..@@
    ..@@
    ..@@
    ..@@
    ..@@
    ..@@
    ..@@
    ..@@
    ..@@
    ..@@
    ..@@
    ..@@
    @@@@
    ....
    ....
    ....
    ....

    left-bearing: 1
    right-bearing: 1


0x5e:
u+005e:
    ............
    .....@......
    ....@@@.....
    ....@.@.....
    ...@@.@@....
    ...@...@....
    ..@@...@@...
    ..@.....@...
    .@@.....@@..
    .@.......@..
    @@.......@@.
    @.........@.
    ............
    ............
    ............
    ............
    ............
    ............
    ............
    ............
    ............
    ............
    ............
    ............
    ............

    left-bearing: 1


0x5f:
u+005f:
    ...............
    ...............
    ...............
    ...............
    ...............
    ...............
    ...............
    ...............
    ...............
    ...............
    ...............
    ...............
    ...............
    ...............
    ...............
    ...............
    ...............
    ...............
    ...............
    ...............
    ...............
    @@@@@@@@@@@@@@@
    ...............
    ...............
    ...............



0x60:
u+0060:
    .....
    @@...
    .@@..
    ..@@.
    ...@@
    .....
    .....
    .....
    .....
    .....
    .....
    .....
    .....
    .....
    .....
    .....
    .....
    .....
    .....
    .....
    .....
    .....
    .....
    .....
    .....

    left-bearing: 1
    right-bearing: 2


0x61:
u+0061:
    ...........
    ...........
    ...........
    ...........
    ...........
    ...........
    ...@@@@@...
    .@@@..@@@..
    .@.....@@@.
    ........@@.
    .......@@@.
    ....@@@@@@.
    .@@@@...@@.
    @@@.....@@.
    @@......@@.
    @@.....@@@.
    @@@..@@.@@.
    .@@@@@..@@@
    ...........
    ...........
    ...........
    ...........
    ...........
    ...........
    ...........

    left-bearing: 1
    right-bearing: 1


0x62:
u+0062:
    ..............
    ..@@..........
    @@@@..........
    ..@@..........
    ..@@..........
    ..@@..........
    ..@@...@@@@...
    ..@@.@@@@@@@@.
    ..@@@.....@@@.
    ..@@.......@@@
    ..@@........@@
    ..@@........@@
    ..@@........@@
    ..@@........@@
    ..@@........@@
    ..@@@......@@.
    ..@@@@@...@@@.
    ..@@.@@@@@@...
    ..............
    ..............
    ..............
    ..............
    ..............
    ..............
    ..............

    right-bearing: 1


0x63:
u+0063:
    ...........
    ...........
    ...........
    ...........
    ...........
    ...........
    ...@@@@@@..
    .@@@...@@@.
    .@@.....@@.
    @@.......@.
    @@.........
    @@.........
    @@.........
    @@.........
    @@@........
    .@@@.....@@
    .@@@@@.@@@.
    ...@@@@@...
    ...........
    ...........
    ...........
    ...........
    ...........
    ...........
    ...........

    left-bearing: 1


0x64:
u+0064:
    .............
    ..........@@.
    ........@@@@.
    ..........@@.
    ..........@@.
    ..........@@.
    ...@@@@@@.@@.
    .@@@...@@@@@.
    .@@......@@@.
    @@........@@.
    @@........@@.
    @@........@@.
    @@........@@.
    @@........@@.
    @@@.......@@.
    .@@@.....@@@.
    .@@@@@@@@.@@.
    ...@@@@...@@@
    .............
    .............
    .............
    .............
    .............
    .............
    .............

    left-bearing: 1
    right-bearing: 1


0x65:
u+0065:
    ...........
    ...........
    ...........
    ...........
    ...........
    ...........
    ...@@@@@...
    .@@@..@@@@.
    .@@.....@@.
    @@......@@@
    @@.......@@
    @@@@@@@@@@@
    @@.........
    @@.........
    @@@........
    .@@@.....@@
    .@@@@@.@@@.
    ...@@@@@...
    ...........
    ...........
    ...........
    ...........
    ...........
    ...........
    ...........

    left-bearing: 1
    right-bearing: 1


0x66:
u+0066:
    .......
    .....@@
    ....@@@
    ...@..@
    ..@@...
    ..@@...
    ..@@...
    @@@@@@@
    ..@@...
    ..@@...
    ..@@...
    ..@@...
    ..@@...
    ..@@...
    ..@@...
    ..@@...
    ..@@...
    .@@@@..
    .......
    .......
    .......
    .......
    .......
    .......
    .......

    right-kerning:
        0x66 -0.43
        0xd5 1.32


0x67:
u+0067:
    ............
    ............
    ............
    ............
    ............
    ............
    ...@@@@@@...
    ..@@...@@@@@
    .@@.....@@..
    .@@.....@@..
    .@@.....@@..
    .@@.....@@..
    .@@@...@@...
    ..@@@@@@....
    ...@@.......
    ..@@........
    ..@@@@@@@@..
    ..@@@@@@@@@.
    .@@......@@@
    @@........@@
    @@........@@
    @@........@@
    @@.......@@.
    .@@@...@@@..
    ...@@@@@....

    left-bearing: 1


0x68:
u+0068:
    .............
    ..@@.........
    @@@@.........
    ..@@.........
    ..@@.........
    ..@@.........
    ..@@...@@@...
    ..@@.@@@@@@..
    ..@@@....@@@.
    ..@@......@@.
    ..@@......@@.
    ..@@......@@.
    ..@@......@@.
    ..@@......@@.
    ..@@......@@.
    ..@@......@@.
    ..@@......@@.
    .@@@@.....@@@
    .............
    .............
    .............
    .............
    .............
    .............
    .............

    right-bearing: 1


0x69:
u+0069:
    .....
    .....
    ..@@.
    ..@@.
    .....
    .....
    ..@@.
    @@@@.
    ..@@.
    ..@@.
    ..@@.
    ..@@.
    ..@@.
    ..@@.
    ..@@.
    ..@@.
    ..@@.
    .@@@@
    .....
    .....
    .....
    .....
    .....
    .....
    .....

    right-bearing: 1


0x6a:
u+006a:
    .....
    .....
    ...@@
    ...@@
    .....
    .....
    ...@@
    .@@@@
    ...@@
    ...@@
    ...@@
    ...@@
    ...@@
    ...@@
    ...@@
    ...@@
    ...@@
    ...@@
    ...@@
    ...@@
    ...@@
    ...@@
    ...@.
    @@@..
    @@...

    left-bearing: -1
    right-bearing: 2


0x6b:
u+006b:
    ............
    ..@@........
    @@@@........
    ..@@........
    ..@@........
    ..@@........
    ..@@.....@@.
    ..@@....@@..
    ..@@...@@...
    ..@@..@@....
    ..@@.@@.....
    ..@@@@......
    ..@@@@@.....
    ..@@.@@@....
    ..@@..@@@...
    ..@@...@@@..
    ..@@....@@@.
    .@@@@....@@@
    ............
    ............
    ............
    ............
    ............
    ............
    ............



0x6c:
u+006c:
    .....
    ..@@.
    @@@@.
    ..@@.
    ..@@.
    ..@@.
    ..@@.
    ..@@.
    ..@@.
    ..@@.
    ..@@.
    ..@@.
    ..@@.
    ..@@.
    ..@@.
    ..@@.
    ..@@.
    .@@@@
    .....
    .....
    .....
    .....
    .....
    .....
    .....

    right-bearing: 1


0x6d:
u+006d:
    .....................
    .....................
    .....................
    .....................
    .....................
    .....................
    ..@@...@@@.....@@@...
    @@@@.@@@@@@..@@@@@@..
    ..@@@....@@@@....@@@.
    ..@@......@@......@@.
    ..@@......@@......@@.
    ..@@......@@......@@.
    ..@@......@@......@@.
    ..@@......@@......@@.
    ..@@......@@......@@.
    ..@@......@@......@@.
    ..@@......@@......@@.
    .@@@@....@@@@.....@@@
    .....................
    .....................
    .....................
    .....................
    .....................
    .....................
    .....................

    right-bearing: 1


0x6e:
u+006e:
    .............
    .............
    .............
    .............
    .............
    .............
    ..@@...@@@...
    @@@@.@@@@@@..
    ..@@@....@@@.
    ..@@......@@.
    ..@@......@@.
    ..@@......@@.
    ..@@......@@.
    ..@@......@@.
    ..@@......@@.
    ..@@......@@.
    ..@@......@@.
    .@@@@.....@@@
    .............
    .............
    .............
    .............
    .............
    .............
    .............

    right-bearing: 1


0x6f:
u+006f:
    .............
    .............
    .............
    .............
    .............
    .............
    ....@@@@@@...
    .@@@....@@@@.
    .@@.......@@.
    @@........@@@
    @@.........@@
    @@.........@@
    @@.........@@
    @@.........@@
    @@@........@@
    .@@.......@@.
    .@@@@....@@@.
    ...@@@@@@....
    .............
    .............
    .............
    .............
    .............
    .............
    .............

    left-bearing: 1
    right-bearing: 1


0x70:
u+0070:
    ..............
    ..............
    ..............
    ..............
    ..............
    ..............
    ..@@...@@@@...
    @@@@.@@@@@@@@.
    ..@@@.....@@@.
    ..@@.......@@@
    ..@@........@@
    ..@@........@@
    ..@@........@@
    ..@@........@@
    ..@@........@@
    ..@@@......@@.
    ..@@@@@...@@@.
    ..@@.@@@@@@...
    ..@@..........
    ..@@..........
    ..@@..........
    ..@@..........
    ..@@..........
    ..@@..........
    @@@@@@........

    right-bearing: 1


0x71:
u+0071:
    .............
    .............
    .............
    .............
    .............
    .............
    ...@@@@@@.@@.
    .@@@...@@@@@.
    .@@......@@@.
    @@........@@.
    @@........@@.
    @@........@@.
    @@........@@.
    @@........@@.
    @@@.......@@.
    .@@@.....@@@.
    .@@@@@@@@.@@.
    ...@@@@...@@.
    ..........@@.
    ..........@@.
    ..........@@.
    ..........@@.
    ..........@@.
    ..........@@.
    .........@@@@

    left-bearing: 1
    right-bearing: 1


0x72:
u+0072:
    .........
    .........
    .........
    .........
    .........
    .........
    ..@@..@@@
    @@@@.@@@@
    ..@@@...@
    ..@@.....
    ..@@.....
    ..@@.....
    ..@@.....
    ..@@.....
    ..@@.....
    ..@@.....
    ..@@.....
    .@@@@....
    .........
    .........
    .........
    .........
    .........
    .........
    .........

    right-kerning:
        0x2c -1.78
        0x2d -0.43
        0x2e -1.78
        0x63 -0.43
        0x64 -0.43
        0x65 -0.43
        0x67 -0.43
        0x68 -0.43
        0x6f -0.43
        0x71 -0.43
        0x75 -0.19
        0xd5 1.78


0x73:
u+0073:
    .........
    .........
    .........
    .........
    .........
    .........
    ...@@@@@.
    .@@...@@.
    @@.....@.
    @@.......
    @@@@.....
    .@@@@@@..
    ...@@@@@.
    ......@@@
    .......@@
    @......@@
    @@....@@.
    @@@@@@@..
    .........
    .........
    .........
    .........
    .........
    .........
    .........

    left-bearing: 1
    right-bearing: 1


0x74:
u+0074:
    .......
    .......
    ...@...
    ..@@...
    ..@@...
    ..@@...
    ..@@...
    @@@@@@@
    ..@@...
    ..@@...
    ..@@...
    ..@@...
    ..@@...
    ..@@...
    ..@@...
    ..@@...
    ..@@@@@
    ...@@@.
    .......
    .......
    .......
    .......
    .......
    .......
    .......

    right-bearing: 1


0x75:
u+0075:
    .............
    .............
    .............
    .............
    .............
    .............
    ..@@......@@.
    @@@@....@@@@.
    ..@@......@@.
    ..@@......@@.
    ..@@......@@.
    ..@@......@@.
    ..@@......@@.
    ..@@......@@.
    ..@@......@@.
    ..@@@....@@@.
    ...@@@@@@.@@.
    ....@@@...@@@
    .............
    .............
    .............
    .............
    .............
    .............
    .............

    right-bearing: 1


0x76:
u+0076:
    .............
    .............
    .............
    .............
    .............
    .............
    @@@@......@@@
    .@@........@.
    .@@.......@@.
    ..@@......@..
    ..@@.....@@..
    ...@@....@...
    ...@@...@@...
    ....@@..@....
    ....@@.@@....
    .....@@@.....
    .....@@@.....
    ......@......
    .............
    .............
    .............
    .............
    .............
    .............
    .............

    right-kerning:
        0x2c -2.66
        0x2e -2.66


0x77:
u+0077:
    ...................
    ...................
    ...................
    ...................
    ...................
    ...................
    @@@@.....@@.....@@@
    .@@......@@......@.
    .@@.....@@@.....@@.
    ..@@....@.@@....@..
    ..@@....@.@@....@..
    ..@@...@@.@@...@@..
    ...@@..@...@@..@...
    ...@@..@...@@..@...
    ...@@.@@...@@.@@...
    ....@@@.....@@@....
    ....@@@.....@@@....
    .....@.......@.....
    ...................
    ...................
    ...................
    ...................
    ...................
    ...................
    ...................

    right-kerning:
        0x2c -2.2
        0x2e -2.2


0x78:
u+0078:
    ............
    ............
    ............
    ............
    ............
    ............
    @@@......@@@
    .@@@.....@@.
    ..@@@...@@..
    ...@@..@@...
    ....@@@@....
    .....@@.....
    .....@@.....
    ....@@@@....
    ...@@..@@...
    ..@@...@@@..
    .@@.....@@@.
    @@@......@@@
    ............
    ............
    ............
    ............
    ............
    ............
    ............



0x79:
u+0079:
    .............
    .............
    .............
    .............
    .............
    .............
    @@@@......@@@
    .@@........@.
    .@@.......@@.
    ..@@......@..
    ..@@.....@@..
    ...@@....@...
    ...@@...@@...
    ....@@..@....
    ....@@.@@....
    .....@@@.....
    .....@@@.....
    ......@......
    .....@@......
    .....@.......
    ....@@.......
    ....@........
    ...@@........
    @@@@.........
    @@@..........

    right-kerning:
        0x2c -2.66
        0x2e -2.66


0x7a:
u+007a:
    ..........
    ..........
    ..........
    ..........
    ..........
    ..........
    @@@@@@@@@@
    @......@@@
    @.....@@@.
    .....@@@..
    ....@@@...
    ....@@....
    ...@@@....
    ..@@@.....
    .@@@......
    @@@......@
    @@.......@
    @@@@@@@@@@
    ..........
    ..........
    ..........
    ..........
    ..........
    ..........
    ..........

    left-bearing: 1
    right-bearing: 1


0x7b:
u+007b:
    .....
    ...@@
    ..@..
    .@@..
    .@@..
    .@@..
    .@@..
    .@@..
    .@@..
    .@...
    @....
    .@...
    .@@..
    .@@..
    .@@..
    .@@..
    .@@..
    .@@..
    .@@..
    ..@..
    ...@@
    .....
    .....
    .....
    .....

    left-bearing: 1
    right-bearing: 1


0x7c:
u+007c:
    ..
    @@
    @@
    @@
    @@
    @@
    @@
    @@
    @@
    @@
    @@
    @@
    @@
    @@
    @@
    @@
    @@
    @@
    ..
    ..
    ..
    ..
    ..
    ..
    ..

    left-bearing: 6
    right-bearing: 6


0x7d:
u+007d:
    .....
    @@...
    ..@..
    ..@@.
    ..@@.
    ..@@.
    ..@@.
    ..@@.
    ..@@.
    ...@.
    ....@
    ...@.
    ..@@.
    ..@@.
    ..@@.
    ..@@.
    ..@@.
    ..@@.
    ..@@.
    ..@..
    @@...
    .....
    .....
    .....
    .....

    left-bearing: 1
    right-bearing: 1


0x7e:
u+007e:
    ............
    ............
    ............
    ............
    ............
    ............
    ............
    ............
    ............
    ..@@@@....@@
    .@@@@@@@@@@.
    @@....@@@@..
    ............
    ............
    ............
    ............
    ............
    ............
    ............
    ............
    ............
    ............
    ............
    ............
    ............

    left-bearing: 1
    right-bearing: 1


0x80:
u+00c4:
    ...................
    .......@@..@@......
    .......@@..@@......
    ...................
    ...................
    ...................
    .........@@@.......
    ........@@@@.......
    .......@@..@@......
    ......@@...@@......
    ......@.....@@.....
    .....@@@@@@@@@.....
    ....@@.......@@....
    ...@@........@@....
    ...@..........@@...
    ..@@..........@@@..
    .@@............@@..
    @@@@.........@@@@@@
    ...................
    ...................
    ...................
    ...................
    ...................
    ...................
    ...................

    left-bearing: 1


0x81:
u+00c5:
    ...................
    .........@@@.......
    ........@...@......
    ........@...@......
    .........@@@.......
    ...................
    .........@@@.......
    ........@@@@.......
    .......@@..@@......
    ......@@...@@......
    ......@.....@@.....
    .....@@@@@@@@@.....
    ....@@.......@@....
    ...@@........@@....
    ...@..........@@...
    ..@@..........@@@..
    .@@............@@..
    @@@@.........@@@@@@
    ...................
    ...................
    ...................
    ...................
    ...................
    ...................
    ...................

    left-bearing: 1


0x82:
u+00c7:
    ................
    .....@@@@@@@@@@.
    ...@@@.......@@.
    ..@@..........@.
    .@@...........@.
    .@@.............
    @@..............
    @@..............
    @@..............
    @@..............
    @@..............
    @@..............
    @@@.............
    @@@.............
    .@@@............
    .@@@..........@@
    ..@@@@......@@@.
    ....@@@@@@@@@...
    .......@........
    .......@@.......
    ........@@......
    ........@@......
    ......@@@.......
    ................
    ................

    left-bearing: 2


0x83:
u+00c9:
    ............
    ......@@....
    .....@@.....
    ....@@......
    ...@@.......
    ............
    @@@@@@@@@@@@
    ..@@......@@
    ..@@.......@
    ..@@.......@
    ..@@........
    ..@@@@@@....
    ..@@........
    ..@@........
    ..@@.......@
    ..@@.......@
    ..@@......@@
    @@@@@@@@@@@@
    ............
    ............
    ............
    ............
    ............
    ............
    ............

    left-bearing: 2
    right-bearing: 1


0x84:
u+00d1:
    ..................
    ......@@...@......
    .....@..@..@......
    .....@...@@.......
    ..................
    ..................
    @@@@@........@@@@@
    ..@@@@.........@..
    ..@.@@@........@..
    ..@..@@@.......@..
    ..@...@@@@.....@..
    ..@....@@@@....@..
    ..@......@@@...@..
    ..@.......@@@..@..
    ..@........@@@.@..
    ..@.........@@@@..
    ..@..........@@@..
    @@@@@.........@@..
    ..................
    ..................
    ..................
    ..................
    ..................
    ..................
    ..................

    left-bearing: 2
    right-bearing: 1


0x85:
u+00d6:
    .................
    .....@@..@@......
    .....@@..@@......
    .................
    .................
    .................
    .....@@@@@@@@....
    ...@@@.....@@@@..
    ..@@.........@@@.
    .@@..........@@@.
    .@@...........@@@
    @@.............@@
    @@@............@@
    @@@...........@@.
    .@@@..........@@.
    .@@@.........@@..
    ..@@@@.....@@@...
    ....@@@@@@@@.....
    .................
    .................
    .................
    .................
    .................
    .................
    .................

    left-bearing: 2
    right-bearing: 1


0x86:
u+00dc:
    .................
    .....@@..@@......
    .....@@..@@......
    .................
    .................
    .................
    @@@@@@......@@@@@
    ..@@..........@..
    ..@@..........@..
    ..@@..........@..
    ..@@..........@..
    ..@@..........@..
    ..@@..........@..
    ..@@@.........@..
    ..@@@........@@..
    ...@@@.......@...
    ...@@@@@...@@@...
    .....@@@@@@@.....
    .................
    .................
    .................
    .................
    .................
    .................
    .................

    left-bearing: 2
    right-bearing: 1


0x87:
u+00e1:
    ...........
    ......@@...
    .....@@....
    ....@@.....
    ...@@......
    ...........
    ...@@@@@...
    .@@@..@@@..
    .@.....@@@.
    ........@@.
    .......@@@.
    ....@@@@@@.
    .@@@@...@@.
    @@@.....@@.
    @@......@@.
    @@.....@@@.
    @@@..@@.@@.
    .@@@@@..@@@
    ...........
    ...........
    ...........
    ...........
    ...........
    ...........
    ...........

    left-bearing: 1
    right-bearing: 1


0x88:
u+00e0:
    ...........
    ...@@......
    ....@@.....
    .....@@....
    ......@@...
    ...........
    ...@@@@@...
    .@@@..@@@..
    .@.....@@@.
    ........@@.
    .......@@@.
    ....@@@@@@.
    .@@@@...@@.
    @@@.....@@.
    @@......@@.
    @@.....@@@.
    @@@..@@.@@.
    .@@@@@..@@@
    ...........
    ...........
    ...........
    ...........
    ...........
    ...........
    ...........

    left-bearing: 1
    right-bearing: 1


0x89:
u+00e2:
    ...........
    .....@.....
    ....@@@....
    ...@@.@@...
    ..@@...@@..
    ...........
    ...@@@@@...
    .@@@..@@@..
    .@.....@@@.
    ........@@.
    .......@@@.
    ....@@@@@@.
    .@@@@...@@.
    @@@.....@@.
    @@......@@.
    @@.....@@@.
    @@@..@@.@@.
    .@@@@@..@@@
    ...........
    ...........
    ...........
    ...........
    ...........
    ...........
    ...........

    left-bearing: 1
    right-bearing: 1


0x8a:
u+00e4:
    ...........
    ...........
    ..@@..@@...
    ..@@..@@...
    ...........
    ...........
    ...@@@@@...
    .@@@..@@@..
    .@.....@@@.
    ........@@.
    .......@@@.
    ....@@@@@@.
    .@@@@...@@.
    @@@.....@@.
    @@......@@.
    @@.....@@@.
    @@@..@@.@@.
    .@@@@@..@@@
    ...........
    ...........
    ...........
    ...........
    ...........
    ...........
    ...........

    left-bearing: 1
    right-bearing: 1


0x8b:
u+00e3:
    ...........
    ...........
    ...........
    ..@@@..@@..
    .@@..@@@...
    ...........
    ...@@@@@...
    .@@@..@@@..
    .@.....@@@.
    ........@@.
    .......@@@.
    ....@@@@@@.
    .@@@@...@@.
    @@@.....@@.
    @@......@@.
    @@.....@@@.
    @@@..@@.@@.
    .@@@@@..@@@
    ...........
    ...........
    ...........
    ...........
    ...........
    ...........
    ...........

    left-bearing: 1
    right-bearing: 1


0x8c:
u+00e5:
    ...........
    ....@@@....
    ...@...@...
    ...@...@...
    ....@@@....
    ...........
    ...@@@@@...
    .@@@..@@@..
    .@.....@@@.
    ........@@.
    .......@@@.
    ....@@@@@@.
    .@@@@...@@.
    @@@.....@@.
    @@......@@.
    @@.....@@@.
    @@@..@@.@@.
    .@@@@@..@@@
    ...........
    ...........
    ...........
    ...........
    ...........
    ...........
    ...........

    left-bearing: 1
    right-bearing: 1


0x8d:
u+00e7:
    ...........
    ...........
    ...........
    ...........
    ...........
    ...........
    ...@@@@@@..
    .@@@...@@@.
    .@@.....@@.
    @@.......@.
    @@.........
    @@.........
    @@.........
    @@.........
    @@@........
    .@@@.....@@
    .@@@@@.@@@.
    ...@@@@@...
    ....@......
    ....@@.....
    .....@@....
    .....@@....
    ...@@@.....
    ...........
    ...........

    left-bearing: 1


0x8e:
u+00e9:
    ...........
    ......@@...
    .....@@....
    ....@@.....
    ...@@......
    ...........
    ...@@@@@...
    .@@@..@@@@.
    .@@.....@@.
    @@......@@@
    @@.......@@
    @@@@@@@@@@@
    @@.........
    @@.........
    @@@........
    .@@@.....@@
    .@@@@@.@@@.
    ...@@@@@...
    ...........
    ...........
    ...........
    ...........
    ...........
    ...........
    ...........

    left-bearing: 1
    right-bearing: 1


0x8f:
u+00e8:
    ...........
    ...@@......
    ....@@.....
    .....@@....
    ......@@...
    ...........
    ...@@@@@...
    .@@@..@@@@.
    .@@.....@@.
    @@......@@@
    @@.......@@
    @@@@@@@@@@@
    @@.........
    @@.........
    @@@........
    .@@@.....@@
    .@@@@@.@@@.
    ...@@@@@...
    ...........
    ...........
    ...........
    ...........
    ...........
    ...........
    ...........

    left-bearing: 1
    right-bearing: 1


0x90:
u+00ea:
    ...........
    .....@.....
    ....@@@....
    ...@@.@@...
    ..@@...@@..
    ...........
    ...@@@@@...
    .@@@..@@@@.
    .@@.....@@.
    @@......@@@
    @@.......@@
    @@@@@@@@@@@
    @@.........
    @@.........
    @@@........
    .@@@.....@@
    .@@@@@.@@@.
    ...@@@@@...
    ...........
    ...........
    ...........
    ...........
    ...........
    ...........
    ...........

    left-bearing: 1
    right-bearing: 1


0x91:
u+00eb:
    ...........
    ...........
    ..@@..@@...
    ..@@..@@...
    ...........
    ...........
    ...@@@@@...
    .@@@..@@@@.
    .@@.....@@.
    @@......@@@
    @@.......@@
    @@@@@@@@@@@
    @@.........
    @@.........
    @@@........
    .@@@.....@@
    .@@@@@.@@@.
    ...@@@@@...
    ...........
    ...........
    ...........
    ...........
    ...........
    ...........
    ...........

    left-bearing: 1
    right-bearing: 1


0x92:
u+00ed:
    .....
    ...@@
    ..@@.
    .@@..
    @@...
    .....
    ..@@.
    @@@@.
    ..@@.
    ..@@.
    ..@@.
    ..@@.
    ..@@.
    ..@@.
    ..@@.
    ..@@.
    ..@@.
    .@@@@
    .....
    .....
    .....
    .....
    .....
    .....
    .....

    right-bearing: 2


0x93:
u+00ec:
    .....
    @@...
    .@@..
    ..@@.
    ...@@
    .....
    ..@@.
    @@@@.
    ..@@.
    ..@@.
    ..@@.
    ..@@.
    ..@@.
    ..@@.
    ..@@.
    ..@@.
    ..@@.
    .@@@@
    .....
    .....
    .....
    .....
    .....
    .....
    .....

    right-bearing: 2


0x94:
u+00ee:
    .......
    ...@...
    ..@@@..
    .@@.@@.
    @@...@@
    .......
    ...@@..
    .@@@@..
    ...@@..
    ...@@..
    ...@@..
    ...@@..
    ...@@..
    ...@@..
    ...@@..
    ...@@..
    ...@@..
    ..@@@@.
    .......
    .......
    .......
    .......
    .......
    .......
    .......

    left-bearing: -1
    right-bearing: 1


0x95:
u+00ef:
    ......
    ......
    @@..@@
    @@..@@
    ......
    ......
    ..@@..
    @@@@..
    ..@@..
    ..@@..
    ..@@..
    ..@@..
    ..@@..
    ..@@..
    ..@@..
    ..@@..
    ..@@..
    .@@@@.
    ......
    ......
    ......
    ......
    ......
    ......
    ......

    right-bearing: 1


0x96:
u+00f1:
    .............
    .............
    .............
    ...@@@..@@...
    ..@@..@@@....
    .............
    ..@@...@@@...
    @@@@.@@@@@@..
    ..@@@....@@@.
    ..@@......@@.
    ..@@......@@.
    ..@@......@@.
    ..@@......@@.
    ..@@......@@.
    ..@@......@@.
    ..@@......@@.
    ..@@......@@.
    .@@@@.....@@@
    .............
    .............
    .............
    .............
    .............
    .............
    .............

    right-bearing: 1


0x97:
u+00f3:
    .............
    .......@@....
    ......@@.....
    .....@@......
    ....@@.......
    .............
    ....@@@@@@...
    .@@@....@@@@.
    .@@.......@@.
    @@........@@@
    @@.........@@
    @@.........@@
    @@.........@@
    @@.........@@
    @@@........@@
    .@@.......@@.
    .@@@@....@@@.
    ...@@@@@@....
    .............
    .............
    .............
    .............
    .............
    .............
    .............

    left-bearing: 1
    right-bearing: 1


0x98:
u+00f2:
    .............
    ....@@.......
    .....@@......
    ......@@.....
    .......@@....
    .............
    ....@@@@@@...
    .@@@....@@@@.
    .@@.......@@.
    @@........@@@
    @@.........@@
    @@.........@@
    @@.........@@
    @@.........@@
    @@@........@@
    .@@.......@@.
    .@@@@....@@@.
    ...@@@@@@....
    .............
    .............
    .............
    .............
    .............
    .............
    .............

    left-bearing: 1
    right-bearing: 1


0x99:
u+00f4:
    .............
    ......@......
    .....@@@.....
    ....@@.@@....
    ...@@...@@...
    .............
    ....@@@@@@...
    .@@@....@@@@.
    .@@.......@@.
    @@........@@@
    @@.........@@
    @@.........@@
    @@.........@@
    @@.........@@
    @@@........@@
    .@@.......@@.
    .@@@@....@@@.
    ...@@@@@@....
    .............
    .............
    .............
    .............
    .............
    .............
    .............

    left-bearing: 1
    right-bearing: 1


0x9a:
u+00f6:
    .............
    .............
    ...@@..@@....
    ...@@..@@....
    .............
    .............
    ....@@@@@@...
    .@@@....@@@@.
    .@@.......@@.
    @@........@@@
    @@.........@@
    @@.........@@
    @@.........@@
    @@.........@@
    @@@........@@
    .@@.......@@.
    .@@@@....@@@.
    ...@@@@@@....
    .............
    .............
    .............
    .............
    .............
    .............
    .............

    left-bearing: 1
    right-bearing: 1


0x9b:
u+00f5:
    .............
    .............
    .............
    ...@@@..@@...
    ..@@..@@@....
    .............
    ....@@@@@@...
    .@@@....@@@@.
    .@@.......@@.
    @@........@@@
    @@.........@@
    @@.........@@
    @@.........@@
    @@.........@@
    @@@........@@
    .@@.......@@.
    .@@@@....@@@.
    ...@@@@@@....
    .............
    .............
    .............
    .............
    .............
    .............
    .............

    left-bearing: 1
    right-bearing: 1


0x9c:
u+00fa:
    .............
    .......@@....
    ......@@.....
    .....@@......
    ....@@.......
    .............
    ..@@......@@.
    @@@@....@@@@.
    ..@@......@@.
    ..@@......@@.
    ..@@......@@.
    ..@@......@@.
    ..@@......@@.
    ..@@......@@.
    ..@@......@@.
    ..@@@....@@@.
    ...@@@@@@.@@.
    ....@@@...@@@
    .............
    .............
    .............
    .............
    .............
    .............
    .............

    right-bearing: 1


0x9d:
u+00f9:
    .............
    ....@@.......
    .....@@......
    ......@@.....
    .......@@....
    .............
    ..@@......@@.
    @@@@....@@@@.
    ..@@......@@.
    ..@@......@@.
    ..@@......@@.
    ..@@......@@.
    ..@@......@@.
    ..@@......@@.
    ..@@......@@.
    ..@@@....@@@.
    ...@@@@@@.@@.
    ....@@@...@@@
    .............
    .............
    .............
    .............
    .............
    .............
    .............

    right-bearing: 1


0x9e:
u+00fb:
    .............
    ......@......
    .....@@@.....
    ....@@.@@....
    ...@@...@@...
    .............
    ..@@......@@.
    @@@@....@@@@.
    ..@@......@@.
    ..@@......@@.
    ..@@......@@.
    ..@@......@@.
    ..@@......@@.
    ..@@......@@.
    ..@@......@@.
    ..@@@....@@@.
    ...@@@@@@.@@.
    ....@@@...@@@
    .............
    .............
    .............
    .............
    .............
    .............
    .............

    right-bearing: 1


0x9f:
u+00fc:
    .............
    .............
    ...@@..@@....
    ...@@..@@....
    .............
    .............
    ..@@......@@.
    @@@@....@@@@.
    ..@@......@@.
    ..@@......@@.
    ..@@......@@.
    ..@@......@@.
    ..@@......@@.
    ..@@......@@.
    ..@@......@@.
    ..@@@....@@@.
    ...@@@@@@.@@.
    ....@@@...@@@
    .............
    .............
    .............
    .............
    .............
    .............
    .............

    right-bearing: 1


0xa0:
u+2020:
    ..........
    ....@@....
    ....@@....
    ....@@....
    ....@@....
    ....@@....
    @@@@@@@@@@
    ....@@....
    ....@@....
    ....@@....
    ....@@....
    ....@@....
    ....@@....
    ....@@....
    ....@@....
    ....@@....
    ....@@....
    ....@@....
    ..........
    ..........
    ..........
    ..........
    ..........
    ..........
    ..........

    left-bearing: 1
    right-bearing: 1


0xa1:
u+00b0:
    .......
    ..@@@..
    .@@.@@.
    @@...@@
    @@...@@
    @@...@@
    .@@.@@.
    ..@@@..
    .......
    .......
    .......
    .......
    .......
    .......
    .......
    .......
    .......
    .......
    .......
    .......
    .......
    .......
    .......
    .......
    .......

    left-bearing: 1
    right-bearing: 1


0xa2:
u+00a2:
    ...........
    ...........
    ...........
    ...........
    .......@...
    .......@...
    ...@@@@@@..
    .@@@...@@@.
    .@@...@.@@.
    @@....@..@.
    @@...@.....
    @@...@.....
    @@...@.....
    @@...@.....
    @@@.@......
    .@@.@....@@
    .@@@@..@@@.
    ...@@@@@...
    ..@........
    ..@........
    ...........
    ...........
    ...........
    ...........
    ...........

    left-bearing: 1
    right-bearing: 1


0xa3:
u+00a3:
    ............
    .......@@@@@
    .....@@...@@
    ....@@.....@
    ....@@......
    ...@@.......
    ...@@.......
    ...@@.......
    ...@@.......
    .@@@@@@@@@..
    ...@@.......
    ...@@.......
    ...@@.......
    ..@@........
    ..@@.......@
    ..@........@
    .@@@@@@@@@@@
    @...@@@@@@@@
    ............
    ............
    ............
    ............
    ............
    ............
    ............

    left-bearing: 1
    right-bearing: 1


0xa4:
u+00a7:
    ...........
    ...@@@@@@..
    .@@@...@@@.
    .@.......@.
    @@.......@.
    @@.........
    @@@........
    .@@@@......
    ..@@@@@@...
    ..@..@@@@@.
    .@.....@@@.
    @@.......@@
    @@.......@@
    @@@@.....@.
    .@@@@@@.@@.
    ...@@@@@@..
    ......@@@@.
    ........@@@
    .........@@
    .@.......@@
    .@.......@.
    .@@@...@@@.
    ..@@@@@@...
    ...........
    ...........

    left-bearing: 1
    right-bearing: 1


0xa5:
u+2022:
    .........
    .........
    .........
    .........
    .........
    ...@@@...
    .@@@@@@@.
    .@@@@@@@.
    @@@@@@@@@
    @@@@@@@@@
    @@@@@@@@@
    .@@@@@@@.
    .@@@@@@@.
    ...@@@...
    .........
    .........
    .........
    .........
    .........
    .........
    .........
    .........
    .........
    .........
    .........

    left-bearing: 3
    right-bearing: 3


0xa6:
u+00b6:
    .............
    ...@@@@@@@@@@
    .@@..@@..@@..
    @@@..@@..@@..
    @@@..@@..@@..
    @@@..@@..@@..
    @@@..@@..@@..
    @@@..@@..@@..
    @@@..@@..@@..
    .@@..@@..@@..
    ...@@@@..@@..
    .....@@..@@..
    .....@@..@@..
    .....@@..@@..
    .....@@..@@..
    .....@@..@@..
    .....@@..@@..
    .....@@..@@..
    .....@@..@@..
    .....@@..@@..
    .....@@..@@..
    .....@@..@@..
    ...@@@@@@@@@@
    .............
    .............

    left-bearing: 1
    right-bearing: 1


0xa7:
u+00df:
    .............
    .....@@@@@...
    ....@....@@..
    ...@......@@.
    ..@@......@@.
    ..@@......@@.
    ..@@....@@@..
    @@@@...@.....
    ..@@..@@.....
    ..@@..@@.....
    ..@@..@@@....
    ..@@...@@@@..
    ..@@.....@@@.
    ..@@......@@@
    ..@@.......@@
    ..@@..@....@@
    ..@@..@@..@@.
    .@@@@.@@@@@..
    .............
    .............
    .............
    .............
    .............
    .............
    .............

    right-bearing: 1


0xa8:
u+00ae:
    .................
    ......@@@@@......
    ....@@.....@@....
    ...@.........@...
    ..@.@@@@@@....@..
    .@...@@..@@....@.
    .@...@@..@@....@.
    @....@@..@@.....@
    @....@@@@@......@
    @....@@.@@......@
    @....@@..@@.....@
    @....@@..@@.....@
    .@...@@...@@...@.
    .@..@@@@..@@@..@.
    ..@...........@..
    ...@.........@...
    ....@@.....@@....
    ......@@@@@......
    .................
    .................
    .................
    .................
    .................
    .................
    .................

    left-bearing: 1
    right-bearing: 1


0xa9:
u+00a9:
    .................
    ......@@@@@......
    ....@@.....@@....
    ...@.........@...
    ..@...@@@@@...@..
    .@..@@@...@@...@.
    .@..@@.....@...@.
    @..@@...........@
    @..@@...........@
    @..@@...........@
    @..@@...........@
    @..@@...........@
    .@..@@.........@.
    .@..@@@...@@...@.
    ..@...@@@@....@..
    ...@.........@...
    ....@@.....@@....
    ......@@@@@......
    .................
    .................
    .................
    .................
    .................
    .................
    .................

    left-bearing: 1
    right-bearing: 1


0xaa:
u+2122:
    .......................
    @@@@@@@@@.@@@.......@@@
    @...@...@..@@.......@@.
    @...@...@..@@@.....@.@.
    ....@......@.@.....@.@.
    ....@......@.@@...@..@.
    ....@......@..@...@..@.
    ....@......@..@@.@...@.
    ....@......@...@.@...@.
    ....@......@...@@....@.
    ..@@@@@...@@@...@...@@@
    .......................
    .......................
    .......................
    .......................
    .......................
    .......................
    .......................
    .......................
    .......................
    .......................
    .......................
    .......................
    .......................
    .......................

    left-bearing: 1
    right-bearing: 1


0xab:
u+00b4:
    .....
    ...@@
    ..@@.
    .@@..
    @@...
    .....
    .....
    .....
    .....
    .....
    .....
    .....
    .....
    .....
    .....
    .....
    .....
    .....
    .....
    .....
    .....
    .....
    .....
    .....
    .....

    left-bearing: 2
    right-bearing: 1


0xac:
u+00a8:
    ......
    ......
    @@..@@
    @@..@@
    ......
    ......
    ......
    ......
    ......
    ......
    ......
    ......
    ......
    ......
    ......
    ......
    ......
    ......
    ......
    ......
    ......
    ......
    ......
    ......
    ......

    left-bearing: 1
    right-bearing: 1


0xad:
u+2260:
    ..........
    ..........
    ..........
    ..........
    ..........
    .......@@.
    .......@@.
    ......@@..
    ......@@..
    @@@@@@@@@@
    @@@@@@@@@@
    ....@@....
    @@@@@@@@@@
    @@@@@@@@@@
    ..@@......
    ..@@......
    .@@.......
    .@@.......
    ..........
    ..........
    ..........
    ..........
    ..........
    ..........
    ..........

    left-bearing: 2
    right-bearing: 2


0xae:
u+00c6:
    .....................
    ......@@@@@@@@@@@@@@@
    .........@@@@......@@
    ........@@.@@.......@
    ........@@.@@........
    .......@@..@@........
    .......@@..@@........
    ......@@...@@.....@..
    ......@@...@@.....@..
    .....@@....@@@@@@@@..
    .....@@....@@.....@..
    ....@@@@@@@@@.....@..
    ....@@.....@@........
    ...@@......@@........
    ...@@......@@........
    ..@@.......@@.......@
    ..@@.......@@......@@
    @@@@@@....@@@@@@@@@@@
    .....................
    .....................
    .....................
    .....................
    .....................
    .....................
    .....................

    right-bearing: 1


0xaf:
u+00d8:
    ..................
    ......@@@@@@@...@@
    ....@@@....@@@@@@.
    ...@@........@@@..
    ..@@.........@@@@.
    ..@@........@@.@@.
    .@@........@@..@@@
    .@@.......@@....@@
    .@@......@@.....@@
    .@@.....@@......@@
    .@@....@@.......@@
    .@@...@@........@@
    .@@@.@@.........@@
    ..@@@@.........@@.
    ..@@@..........@@.
    ..@@@@........@@..
    .@@.@@@@....@@@...
    @@....@@@@@@@.....
    ..................
    ..................
    ..................
    ..................
    ..................
    ..................
    ..................

    left-bearing: 1
    right-bearing: 1


0xb0:
u+221e:
    ...............
    ...............
    ...............
    ...............
    ...............
    ...............
    ...............
    ..@@@.....@@@..
    .@@@@@...@@@@@.
    @@...@@.@@...@@
    @@....@@@....@@
    @@...@@@@@...@@
    .@@@@@...@@@@@.
    ..@@@.....@@@..
    ...............
    ...............
    ...............
    ...............
    ...............
    ...............
    ...............
    ...............
    ...............
    ...............
    ...............

    left-bearing: 1
    right-bearing: 1


0xb1:
u+00b1:
    ..........
    ..........
    ..........
    ..........
    ....@@....
    ....@@....
    ....@@....
    ....@@....
    @@@@@@@@@@
    @@@@@@@@@@
    ....@@....
    ....@@....
    ....@@....
    ....@@....
    ..........
    ..........
    @@@@@@@@@@
    @@@@@@@@@@
    ..........
    ..........
    ..........
    ..........
    ..........
    ..........
    ..........

    left-bearing: 1
    right-bearing: 1


0xb2:
u+2264:
    ............
    ............
    ............
    .........@@@
    .......@@@@.
    .....@@@@...
    ...@@@@.....
    .@@@@.......
    @@@.........
    @@@.........
    .@@@@.......
    ...@@@@.....
    ......@@@@..
    ........@@@@
    ..........@@
    ............
    @@@@@@@@@@@@
    @@@@@@@@@@@@
    ............
    ............
    ............
    ............
    ............
    ............
    ............

    right-bearing: 2


0xb3:
u+2265:
    ............
    ............
    ............
    @@@.........
    .@@@@.......
    ...@@@@.....
    .....@@@@...
    .......@@@@.
    .........@@@
    .........@@@
    .......@@@@.
    .....@@@@...
    ..@@@@@.....
    @@@@........
    @@..........
    ............
    @@@@@@@@@@@@
    @@@@@@@@@@@@
    ............
    ............
    ............
    ............
    ............
    ............
    ............

    right-bearing: 2


0xb4:
u+00a5:
    .................
    @@@@..........@@@
    ..@@@.........@@.
    ...@@@.......@@..
    ....@@......@@...
    .....@@.....@....
    .....@@@...@@....
    ......@@..@@.....
    .......@@@@......
    ....@@@@@@@@@@...
    ........@@.......
    ........@@.......
    ....@@@@@@@@@@...
    ........@@.......
    ........@@.......
    ........@@.......
    ........@@.......
    ......@@@@@@.....
    .................
    .................
    .................
    .................
    .................
    .................
    .................



0xb5:
u+00b5:
    .............
    .............
    .............
    .............
    .............
    .@@.....@@...
    .@@.....@@...
    .@@.....@@...
    .@@.....@@...
    .@@.....@@...
    .@@.....@@...
    .@@.....@@...
    .@@.....@@...
    .@@.....@@...
    .@@.....@@...
    .@@@...@@@..@
    ..@@@@@@@@@@@
    .@@.@@@@..@@.
    .@@..........
    .@@..........
    .@@..........
    .@@..........
    @@...........
    .............
    .............

    left-bearing: 1


0xb6:
u+2202:
    ..........
    ..@@@@@...
    .@@...@@..
    @@.....@@.
    .......@@.
    ........@@
    ........@@
    ...@@@@.@@
    .@@@..@@@@
    .@@....@@@
    @@......@@
    @@......@@
    @@.....@@.
    @@.....@@.
    @@.....@@.
    @@@...@@..
    .@@@.@@@..
    ..@@@@@...
    ..........
    ..........
    ..........
    ..........
    ..........
    ..........
    ..........

    left-bearing: 1
    right-bearing: 1


0xb7:
u+2211:
    ..............
    @@@@@@@@@@@@@.
    @@@........@@.
    .@@@........@.
    ..@@@.........
    ...@@@........
    ....@@@.......
    .....@@@......
    ......@@@.....
    .......@@@....
    ........@@....
    .......@@.....
    ......@@......
    .....@@.......
    ....@@........
    ...@@.........
    ..@@..........
    .@@..........@
    @@..........@@
    @@@@@@@@@@@@@@
    @@@@@@@@@@@@@@
    ..............
    ..............
    ..............
    ..............

    left-bearing: 2
    right-bearing: 2


0xb8:
u+220f:
    .................
    @@@@@@@@@@@@@@@@@
    ..@@.........@@..
    ..@@.........@@..
    ..@@.........@@..
    ..@@.........@@..
    ..@@.........@@..
    ..@@.........@@..
    ..@@.........@@..
    ..@@.........@@..
    ..@@.........@@..
    ..@@.........@@..
    ..@@.........@@..
    ..@@.........@@..
    ..@@.........@@..
    ..@@.........@@..
    ..@@.........@@..
    ..@@.........@@..
    ..@@.........@@..
    ..@@.........@@..
    ..@@.........@@..
    @@@@@@.....@@@@@@
    .................
    .................
    .................

    left-bearing: 1
    right-bearing: 1


0xb9:
u+03c0:
    .............
    .............
    .............
    .............
    .............
    .@@@@@@@@@@@@
    @@@@@@@@@@@@@
    @..@@...@@...
    ...@@...@@...
    ...@@...@@...
    ...@@...@@...
    ...@@...@@...
    ...@@...@@...
    ...@@...@@...
    ...@@...@@...
    ...@@...@@..@
    ..@@@...@@@@@
    ..@@....@@@@.
    .............
    .............
    .............
    .............
    .............
    .............
    .............

    right-bearing: 1


0xba:
u+222b:
    ........
    .....@@@
    ....@@@@
    ...@@.@@
    ...@@...
    ...@@...
    ...@@...
    ...@@...
    ...@@...
    ...@@...
    ...@@...
    ...@@...
    ...@@...
    ...@@...
    ...@@...
    ...@@...
    ...@@...
    ...@@...
    ...@@...
    ...@@...
    @@.@@...
    @@@@....
    @@@.....
    ........
    ........



0xbb:
u+00aa:
    ........
    .@@@@@..
    @@...@@.
    .....@@.
    ...@@@@.
    .@@..@@.
    @@...@@.
    @@..@@@.
    @@@@.@@.
    .@@..@@@
    ........
    @@@@@@@@
    ........
    ........
    ........
    ........
    ........
    ........
    ........
    ........
    ........
    ........
    ........
    ........
    ........

    left-bearing: 1
    right-bearing: 1


0xbc:
u+00ba:
    ........
    ..@@@@..
    .@@..@@.
    .@....@@
    @@....@@
    @@....@@
    @@....@@
    @@....@.
    .@@..@@.
    ..@@@@..
    ........
    @@@@@@@@
    ........
    ........
    ........
    ........
    ........
    ........
    ........
    ........
    ........
    ........
    ........
    ........
    ........

    left-bearing: 1
    right-bearing: 1


0xbd:
u+03a9:
    ................
    .....@@@@@@.....
    ...@@@@..@@@@...
    ..@@@......@@@..
    .@@@........@@@.
    .@@..........@@.
    @@............@@
    @@............@@
    @@............@@
    @@............@@
    @@............@@
    .@@..........@@.
    ..@@........@@..
    ...@@......@@...
    @...@@....@@...@
    @@...@....@...@@
    @@@@@@....@@@@@@
    @@@@@@....@@@@@@
    ................
    ................
    ................
    ................
    ................
    ................
    ................

    left-bearing: 1
    right-bearing: 1


0xbe:
u+00e6:
    ...................
    ...................
    ...................
    ...................
    ...................
    ...................
    ...@@@@@...@@@@@...
    .@@@..@@@@@@..@@@@.
    .@.....@@@@.....@@.
    ........@@......@@@
    .......@@@.......@@
    ....@@@@@@@@@@@@@@@
    .@@@@...@@.........
    @@@.....@@.........
    @@......@@@........
    @@.....@@@@@.....@@
    @@@..@@..@@@@@.@@@.
    .@@@@@.....@@@@@...
    ...................
    ...................
    ...................
    ...................
    ...................
    ...................
    ...................

    left-bearing: 1
    right-bearing: 1


0xbf:
u+00f8:
    ................
    ................
    ................
    ................
    ................
    ................
    ......@@@@@@.@@.
    ...@@@....@@@@..
    ...@@.....@@@@..
    ..@@.....@@.@@@.
    ..@@....@@...@@.
    ..@@...@@....@@.
    ..@@..@@.....@@.
    ..@@.@@......@@.
    ..@@@@.......@@.
    ...@@.......@@..
    ..@@@@@....@@@..
    .@@..@@@@@@.....
    ................
    ................
    ................
    ................
    ................
    ................
    ................

    left-bearing: -1


0xc0:
u+00bf:
    ........
    ........
    ........
    ........
    ........
    ........
    ....@@..
    ....@@..
    ........
    ........
    ....@...
    ....@@..
    ....@@..
    ....@@..
    ...@@...
    ..@@....
    .@@.....
    @@......
    @@......
    @@.....@
    @@.....@
    @@@...@@
    .@@@@@@.
    ........
    ........

    left-bearing: 1


0xc1:
u+00a1:
    ..
    ..
    ..
    ..
    ..
    ..
    @@
    @@
    ..
    ..
    ..
    @@
    @@
    @@
    @@
    @@
    @@
    @@
    @@
    @@
    @@
    @@
    @@
    @@
    @@

    left-bearing: 1
    right-bearing: 1


0xc2:
u+00ac:
    ...........
    ...........
    ...........
    ...........
    ...........
    ...........
    ...........
    ...........
    ...........
    @@@@@@@@@@@
    ..........@
    ..........@
    ..........@
    ..........@
    ..........@
    ...........
    ...........
    ...........
    ...........
    ...........
    ...........
    ...........
    ...........
    ...........
    ...........

    left-bearing: 1
    right-bearing: 2


0xc3:
u+221a:
    .............
    ............@
    ............@
    ...........@@
    ..@@.......@@
    .@@@.......@.
    @@.@@......@.
    ...@@......@.
    ....@@....@@.
    ....@@....@@.
    .....@@...@..
    .....@@...@..
    ......@@..@..
    ......@@.@@..
    .......@@@...
    .......@@@...
    ........@@...
    ........@@...
    .............
    .............
    .............
    .............
    .............
    .............
    .............

    right-bearing: 1


0xc4:
u+0192:
    ...........
    .........@@
    ........@@@
    .......@..@
    ......@@...
    ......@@...
    ......@@...
    ...@@@@@@@.
    .....@@....
    .....@@....
    .....@@....
    .....@@....
    ....@@.....
    ....@@.....
    ....@@.....
    ....@@.....
    ....@@.....
    ...@@......
    ...@@......
    ...@@......
    ...@@......
    ...@@......
    @..@.......
    @@@........
    @@.........

    right-bearing: 1


0xc5:
u+2248:
    ...........
    ...........
    ...........
    ...........
    ...........
    ...........
    ...........
    ..@@@.....@
    .@@@@@...@@
    @@...@@@@@.
    @.....@@@..
    ..@@@.....@
    .@@@@@...@@
    @@...@@@@@.
    @.....@@@..
    ...........
    ...........
    ...........
    ...........
    ...........
    ...........
    ...........
    ...........
    ...........
    ...........

    left-bearing: 1
    right-bearing: 1


0xc6:
u+2206:
    ...............
    ......@@.......
    ......@@.......
    ......@@@......
    .....@.@@......
    .....@..@@.....
    ....@@..@@.....
    ....@....@@....
    ....@....@@....
    ...@@.....@@...
    ...@......@@...
    ..@@.......@@..
    ..@........@@..
    ..@.........@@.
    .@@.........@@.
    .@...........@@
    @@...........@@
    @@@@@@@@@@@@@@@
    ...............
    ...............
    ...............
    ...............
    ...............
    ...............
    ...............



0xc7:
u+00ab:
    ..........
    ..........
    ..........
    ..........
    ..........
    ..........
    ..........
    ..........
    ...@@...@@
    ..@@...@@.
    .@@...@@..
    @@...@@...
    .@@...@@..
    ..@@...@@.
    ...@@...@@
    ..........
    ..........
    ..........
    ..........
    ..........
    ..........
    ..........
    ..........
    ..........
    ..........

    left-bearing: 1
    right-bearing: 1


0xc8:
u+00bb:
    ..........
    ..........
    ..........
    ..........
    ..........
    ..........
    ..........
    ..........
    @@...@@...
    .@@...@@..
    ..@@...@@.
    ...@@...@@
    ..@@...@@.
    .@@...@@..
    @@...@@...
    ..........
    ..........
    ..........
    ..........
    ..........
    ..........
    ..........
    ..........
    ..........
    ..........

    left-bearing: 1
    right-bearing: 1


0xc9:
u+2026:
    ..............
    ..............
    ..............
    ..............
    ..............
    ..............
    ..............
    ..............
    ..............
    ..............
    ..............
    ..............
    ..............
    ..............
    ..............
    ..............
    @@....@@....@@
    @@....@@....@@
    ..............
    ..............
    ..............
    ..............
    ..............
    ..............
    ..............

    left-bearing: 1
    right-bearing: 3


0xca:
u+00a0:
    .
    .
    .
    .
    .
    .
    .
    .
    .
    .
    .
    .
    .
    .
    .
    .
    .
    .
    .
    .
    .
    .
    .
    .
    .

    right-bearing: 6


0xcb:
u+00c0:
    ...................
    .......@@..........
    ........@@.........
    .........@@........
    ..........@@.......
    ...................
    .........@@@.......
    ........@@@@.......
    .......@@..@@......
    ......@@...@@......
    ......@.....@@.....
    .....@@@@@@@@@.....
    ....@@.......@@....
    ...@@........@@....
    ...@..........@@...
    ..@@..........@@@..
    .@@............@@..
    @@@@.........@@@@@@
    ...................
    ...................
    ...................
    ...................
    ...................
    ...................
    ...................

    left-bearing: 1


0xcc:
u+00c3:
    ...................
    .......@@...@......
    ......@..@..@......
    ......@...@@.......
    ...................
    ...................
    .........@@@.......
    ........@@@@.......
    .......@@..@@......
    ......@@...@@......
    ......@.....@@.....
    .....@@@@@@@@@.....
    ....@@.......@@....
    ...@@........@@....
    ...@..........@@...
    ..@@..........@@@..
    .@@............@@..
    @@@@.........@@@@@@
    ...................
    ...................
    ...................
    ...................
    ...................
    ...................
    ...................

    left-bearing: 1


0xcd:
u+00d5:
    .................
    ......@@...@.....
    .....@..@..@.....
    .....@...@@......
    .................
    .................
    .....@@@@@@@@....
    ...@@@.....@@@@..
    ..@@.........@@@.
    .@@..........@@@.
    .@@...........@@@
    @@.............@@
    @@@............@@
    @@@...........@@.
    .@@@..........@@.
    .@@@.........@@..
    ..@@@@.....@@@...
    ....@@@@@@@@.....
    .................
    .................
    .................
    .................
    .................
    .................
    .................

    left-bearing: 2
    right-bearing: 1


0xce:
u+0152:
    ......................
    .....@@@@@@@@@@@@@@@@@
    ...@@@.....@@@......@@
    ..@@........@@.......@
    .@@.........@@........
    .@@.........@@........
    @@..........@@........
    @@..........@@.....@..
    @@..........@@.....@..
    @@..........@@@@@@@@..
    @@..........@@.....@..
    @@..........@@.....@..
    @@@.........@@........
    .@@.........@@........
    .@@@........@@........
    ..@@@.......@@.......@
    ...@@@@....@@@......@@
    .....@@@@@@@@@@@@@@@@@
    ......................
    ......................
    ......................
    ......................
    ......................
    ......................
    ......................

    left-bearing: 2
    right-bearing: 1


0xcf:
u+0153:
    ......................
    ......................
    ......................
    ......................
    ......................
    ......................
    ....@@@@@@....@@@@@...
    .@@@....@@@.@@@..@@@@.
    .@@.......@@@@.....@@.
    @@........@@@......@@@
    @@.........@@.......@@
    @@.........@@@@@@@@@@@
    @@.........@@.........
    @@.........@@.........
    @@@........@@@........
    .@@.......@@@@@.....@@
    .@@@@....@@.@@@@@.@@@.
    ...@@@@@@.....@@@@@...
    ......................
    ......................
    ......................
    ......................
    ......................
    ......................
    ......................

    left-bearing: 1
    right-bearing: 1


0xd0:
u+2013:
    ...........
    ...........
    ...........
    ...........
    ...........
    ...........
    ...........
    ...........
    ...........
    ...........
    ...........
    @@@@@@@@@@@
    ...........
    ...........
    ...........
    ...........
    ...........
    ...........
    ...........
    ...........
    ...........
    ...........
    ...........
    ...........
    ...........

    left-bearing: 1
    right-bearing: 1


0xd1:
u+2014:
    .......................
    .......................
    .......................
    .......................
    .......................
    .......................
    .......................
    .......................
    .......................
    .......................
    .......................
    @@@@@@@@@@@@@@@@@@@@@@@
    .......................
    .......................
    .......................
    .......................
    .......................
    .......................
    .......................
    .......................
    .......................
    .......................
    .......................
    .......................
    .......................

    left-bearing: 1
    right-bearing: 1


0xd2:
u+201c:
    .......
    ..@...@
    .@@..@@
    .@...@.
    @@..@@.
    @@..@@.
    @@..@@.
    .......
    .......
    .......
    .......
    .......
    .......
    .......
    .......
    .......
    .......
    .......
    .......
    .......
    .......
    .......
    .......
    .......
    .......

    left-bearing: 1
    right-bearing: 1


0xd3:
u+201d:
    .......
    .@@..@@
    .@@..@@
    .@@..@@
    .@...@.
    @@..@@.
    @...@..
    .......
    .......
    .......
    .......
    .......
    .......
    .......
    .......
    .......
    .......
    .......
    .......
    .......
    .......
    .......
    .......
    .......
    .......

    left-bearing: 1
    right-bearing: 1


0xd4:
u+2018:
    ...
    ..@
    .@@
    .@.
    @@.
    @@.
    @@.
    ...
    ...
    ...
    ...
    ...
    ...
    ...
    ...
    ...
    ...
    ...
    ...
    ...
    ...
    ...
    ...
    ...
    ...

    left-bearing: 1
    right-bearing: 1
    right-kerning: 0xd4 -0.88


0xd5:
u+2019:
    ...
    .@@
    .@@
    .@@
    .@.
    @@.
    @..
    ...
    ...
    ...
    ...
    ...
    ...
    ...
    ...
    ...
    ...
    ...
    ...
    ...
    ...
    ...
    ...
    ...
    ...

    left-bearing: 1
    right-bearing: 1
    right-kerning: 0xd5 -0.88


0xd6:
u+00f7:
    ..........
    ..........
    ..........
    ..........
    ..........
    ..........
    ..........
    ....@@....
    ....@@....
    ..........
    @@@@@@@@@@
    @@@@@@@@@@
    ..........
    ....@@....
    ....@@....
    ..........
    ..........
    ..........
    ..........
    ..........
    ..........
    ..........
    ..........
    ..........
    ..........

    left-bearing: 1
    right-bearing: 1


0xd7:
u+25ca:
    ..........
    ....@@....
    ...@@@@...
    ...@@@@...
    ..@@..@@..
    ..@@..@@..
    .@@....@@.
    .@@....@@.
    @@......@@
    @@......@@
    @@......@@
    .@@....@@.
    .@@....@@.
    ..@@..@@..
    ..@@..@@..
    ...@@@@...
    ...@@@@...
    ....@@....
    ..........
    ..........
    ..........
    ..........
    ..........
    ..........
    ..........

    left-bearing: 1
    right-bearing: 1


0xd8:
u+00ff:
    .............
    .............
    ...@@..@@....
    ...@@..@@....
    .............
    .............
    @@@@......@@@
    .@@........@.
    .@@.......@@.
    ..@@......@..
    ..@@.....@@..
    ...@@....@...
    ...@@...@@...
    ....@@..@....
    ....@@.@@....
    .....@@@.....
    .....@@@.....
    ......@......
    .....@@......
    .....@.......
    ....@@.......
    ....@........
    ...@@........
    @@@@.........
    @@@..........



0xd9:
u+0178:
    .................
    .....@@..@@......
    .....@@..@@......
    .................
    .................
    .@@@.............
    @@@@@........@@@@
    ..@@@@......@@@..
    ....@@@....@@....
    .....@@@..@@.....
    ......@@@@@......
    .......@@@.......
    ........@@.......
    ........@@.......
    ........@@.......
    ........@@.......
    ........@@.......
    ......@@@@@@.....
    .................
    .................
    .................
    .................
    .................
    .................
    .................



0xda:
u+2044:
    ........
    .......@
    .......@
    ......@@
    ......@.
    .....@@.
    .....@..
    ....@@..
    ....@...
    ...@@...
    ...@....
    ..@@....
    ..@.....
    .@@.....
    .@......
    @@......
    @.......
    @.......
    ........
    ........
    ........
    ........
    ........
    ........
    ........

    left-bearing: -2
    right-bearing: -2


0xdb:
u+00a4:
    .............
    .............
    .............
    .............
    @@..@@@@@..@@
    .@@@@@@@@@@@.
    ..@@.....@@..
    .@@.......@@.
    .@@.......@@.
    .@@.......@@.
    .@@.......@@.
    .@@.......@@.
    ..@@.....@@..
    .@@@@@@@@@@@.
    @@..@@@@@..@@
    .............
    .............
    .............
    .............
    .............
    .............
    .............
    .............
    .............
    .............

    left-bearing: 1
    right-bearing: 1


0xdc:
u+2039:
    .....
    .....
    .....
    .....
    .....
    .....
    .....
    .....
    ...@@
    ..@@.
    .@@..
    @@...
    .@@..
    ..@@.
    ...@@
    .....
    .....
    .....
    .....
    .....
    .....
    .....
    .....
    .....
    .....

    left-bearing: 1
    right-bearing: 1


0xdd:
u+203a:
    .....
    .....
    .....
    .....
    .....
    .....
    .....
    .....
    @@...
    .@@..
    ..@@.
    ...@@
    ..@@.
    .@@..
    @@...
    .....
    .....
    .....
    .....
    .....
    .....
    .....
    .....
    .....
    .....

    left-bearing: 1
    right-bearing: 1


0xde:
u+fb01:
    ............
    .....@@.....
    ....@@@..@@.
    ...@..@..@@.
    ..@@........
    ..@@........
    ..@@.....@@.
    @@@@@@@.@@@.
    ..@@.....@@.
    ..@@.....@@.
    ..@@.....@@.
    ..@@.....@@.
    ..@@.....@@.
    ..@@.....@@.
    ..@@.....@@.
    ..@@.....@@.
    ..@@.....@@.
    .@@@@...@@@@
    ............
    ............
    ............
    ............
    ............
    ............
    ............

    right-bearing: 1


0xdf:
u+fb02:
    ............
    .....@@..@@.
    ....@@@@@@@.
    ...@..@..@@.
    ..@@.....@@.
    ..@@.....@@.
    ..@@.....@@.
    @@@@@@@..@@.
    ..@@.....@@.
    ..@@.....@@.
    ..@@.....@@.
    ..@@.....@@.
    ..@@.....@@.
    ..@@.....@@.
    ..@@.....@@.
    ..@@.....@@.
    ..@@.....@@.
    @@@@@@..@@@@
    ............
    ............
    ............
    ............
    ............
    ............
    ............

    right-bearing: 1


0xe0:
u+2021:
    ..........
    ....@@....
    ....@@....
    ....@@....
    ....@@....
    ....@@....
    @@@@@@@@@@
    ....@@....
    ....@@....
    ....@@....
    ....@@....
    ....@@....
    ....@@....
    ....@@....
    ....@@....
    ....@@....
    ....@@....
    @@@@@@@@@@
    ....@@....
    ....@@....
    ....@@....
    ....@@....
    ....@@....
    ....@@....
    ..........

    left-bearing: 1
    right-bearing: 1


0xe1:
u+00b7:
    ...
    ...
    ...
    ...
    ...
    ...
    ...
    ...
    ...
    ...
    @@@
    @@@
    @@@
    ...
    ...
    ...
    ...
    ...
    ...
    ...
    ...
    ...
    ...
    ...
    ...

    left-bearing: 1
    right-bearing: 1


0xe2:
u+201a:
    ...
    ...
    ...
    ...
    ...
    ...
    ...
    ...
    ...
    ...
    ...
    ...
    ...
    ...
    ...
    ...
    .@@
    .@@
    .@@
    .@.
    @@.
    @..
    ...
    ...
    ...

    left-bearing: 1
    right-bearing: 1


0xe3:
u+201e:
    .......
    .......
    .......
    .......
    .......
    .......
    .......
    .......
    .......
    .......
    .......
    .......
    .......
    .......
    .......
    .......
    .@@..@@
    .@@..@@
    .@@..@@
    .@...@.
    @@..@@.
    @...@..
    .......
    .......
    .......

    left-bearing: 1
    right-bearing: 1


0xe4:
u+2030:
    ........................
    ...@@@....@@............
    .@@@..@..@.@............
    .@@...@@@.@@............
    @@....@...@.............
    @@....@..@@.............
    @@...@...@..............
    @@..@@..@@..............
    .@@@....@...............
    .......@@...............
    .......@....@@@.....@@@.
    ......@@..@@@..@..@@@..@
    ......@...@@...@..@@...@
    .....@@..@@....@.@@....@
    .....@...@@....@.@@....@
    ....@@...@@...@..@@...@.
    ....@....@@..@@..@@..@@.
    ....@.....@@@.....@@@...
    ........................
    ........................
    ........................
    ........................
    ........................
    ........................
    ........................

    left-bearing: 1
    right-bearing: 1


0xe5:
u+00c2:
    ...................
    .........@.........
    ........@@@........
    .......@@.@@.......
    ......@@...@@......
    ...................
    .........@@@.......
    ........@@@@.......
    .......@@..@@......
    ......@@...@@......
    ......@.....@@.....
    .....@@@@@@@@@.....
    ....@@.......@@....
    ...@@........@@....
    ...@..........@@...
    ..@@..........@@@..
    .@@............@@..
    @@@@.........@@@@@@
    ...................
    ...................
    ...................
    ...................
    ...................
    ...................
    ...................

    left-bearing: 1


0xe6:
u+00ca:
    ............
    .....@......
    ....@@@.....
    ...@@.@@....
    ..@@...@@...
    ............
    @@@@@@@@@@@@
    ..@@......@@
    ..@@.......@
    ..@@.......@
    ..@@........
    ..@@@@@@....
    ..@@........
    ..@@........
    ..@@.......@
    ..@@.......@
    ..@@......@@
    @@@@@@@@@@@@
    ............
    ............
    ............
    ............
    ............
    ............
    ............

    left-bearing: 2
    right-bearing: 1


0xe7:
u+00c1:
    ...................
    ..........@@.......
    .........@@........
    ........@@.........
    .......@@..........
    ...................
    .........@@@.......
    ........@@@@.......
    .......@@..@@......
    ......@@...@@......
    ......@.....@@.....
    .....@@@@@@@@@.....
    ....@@.......@@....
    ...@@........@@....
    ...@..........@@...
    ..@@..........@@@..
    .@@............@@..
    @@@@.........@@@@@@
    ...................
    ...................
    ...................
    ...................
    ...................
    ...................
    ...................

    left-bearing: 1


0xe8:
u+00cb:
    ............
    ...@@..@@...
    ...@@..@@...
    ............
    ............
    ............
    @@@@@@@@@@@@
    ..@@......@@
    ..@@.......@
    ..@@.......@
    ..@@........
    ..@@@@@@....
    ..@@........
    ..@@........
    ..@@.......@
    ..@@.......@
    ..@@......@@
    @@@@@@@@@@@@
    ............
    ............
    ............
    ............
    ............
    ............
    ............

    left-bearing: 2
    right-bearing: 1


0xe9:
u+00c8:
    ............
    ..@@........
    ...@@.......
    ....@@......
    .....@@.....
    ............
    @@@@@@@@@@@@
    ..@@......@@
    ..@@.......@
    ..@@.......@
    ..@@........
    ..@@@@@@....
    ..@@........
    ..@@........
    ..@@.......@
    ..@@.......@
    ..@@......@@
    @@@@@@@@@@@@
    ............
    ............
    ............
    ............
    ............
    ............
    ............

    left-bearing: 2
    right-bearing: 1


0xea:
u+00cd:
    ......
    ...@@.
    ..@@..
    .@@...
    @@....
    ......
    @@@@@@
    ..@@..
    ..@@..
    ..@@..
    ..@@..
    ..@@..
    ..@@..
    ..@@..
    ..@@..
    ..@@..
    ..@@..
    @@@@@@
    ......
    ......
    ......
    ......
    ......
    ......
    ......

    left-bearing: 2
    right-bearing: 1


0xeb:
u+00ce:
    .......
    ...@...
    ..@@@..
    .@@.@@.
    @@...@@
    .......
    @@@@@@.
    ..@@...
    ..@@...
    ..@@...
    ..@@...
    ..@@...
    ..@@...
    ..@@...
    ..@@...
    ..@@...
    ..@@...
    @@@@@@.
    .......
    .......
    .......
    .......
    .......
    .......
    .......

    left-bearing: 2


0xec:
u+00cf:
    ......
    @@..@@
    @@..@@
    ......
    ......
    ......
    @@@@@@
    ..@@..
    ..@@..
    ..@@..
    ..@@..
    ..@@..
    ..@@..
    ..@@..
    ..@@..
    ..@@..
    ..@@..
    @@@@@@
    ......
    ......
    ......
    ......
    ......
    ......
    ......

    left-bearing: 2
    right-bearing: 1


0xed:
u+00cc:
    ......
    @@....
    .@@...
    ..@@..
    ...@@.
    ......
    @@@@@@
    ..@@..
    ..@@..
    ..@@..
    ..@@..
    ..@@..
    ..@@..
    ..@@..
    ..@@..
    ..@@..
    ..@@..
    @@@@@@
    ......
    ......
    ......
    ......
    ......
    ......
    ......

    left-bearing: 2
    right-bearing: 1


0xee:
u+00d3:
    .................
    .........@@......
    ........@@.......
    .......@@........
    ......@@.........
    .................
    .....@@@@@@@@....
    ...@@@.....@@@@..
    ..@@.........@@@.
    .@@..........@@@.
    .@@...........@@@
    @@.............@@
    @@@............@@
    @@@...........@@.
    .@@@..........@@.
    .@@@.........@@..
    ..@@@@.....@@@...
    ....@@@@@@@@.....
    .................
    .................
    .................
    .................
    .................
    .................
    .................

    left-bearing: 2
    right-bearing: 1


0xef:
u+00d4:
    .................
    ........@........
    .......@@@.......
    ......@@.@@......
    .....@@...@@.....
    .................
    .....@@@@@@@@....
    ...@@@.....@@@@..
    ..@@.........@@@.
    .@@..........@@@.
    .@@...........@@@
    @@.............@@
    @@@............@@
    @@@...........@@.
    .@@@..........@@.
    .@@@.........@@..
    ..@@@@.....@@@...
    ....@@@@@@@@.....
    .................
    .................
    .................
    .................
    .................
    .................
    .................

    left-bearing: 2
    right-bearing: 1


0xf0:
u+f8ff:
    ................
    .........@@@....
    ........@@@@....
    ........@@@.....
    ........@@......
    ...@@@@.@..@@...
    ..@@@@@@@@@@@@..
    .@@@@@@@@@@@@@@.
    .@@@@@@@@@@@@@..
    @@@@@@@@@@@@@...
    @@@@@@@@@@@@@...
    @@@@@@@@@@@@@...
    .@@@@@@@@@@@@...
    .@@@@@@@@@@@@@..
    ..@@@@@@@@@@@@@@
    ..@@@@@@@@@@@@@.
    ...@@@@@@@@@@@..
    ....@@@...@@@...
    ................
    ................
    ................
    ................
    ................
    ................
    ................

    left-bearing: 1
    right-bearing: 1


0xf1:
u+00d2:
    .................
    ......@@.........
    .......@@........
    ........@@.......
    .........@@......
    .................
    .....@@@@@@@@....
    ...@@@.....@@@@..
    ..@@.........@@@.
    .@@..........@@@.
    .@@...........@@@
    @@.............@@
    @@@............@@
    @@@...........@@.
    .@@@..........@@.
    .@@@.........@@..
    ..@@@@.....@@@...
    ....@@@@@@@@.....
    .................
    .................
    .................
    .................
    .................
    .................
    .................

    left-bearing: 2
    right-bearing: 1


0xf2:
u+00da:
    .................
    .........@@......
    ........@@.......
    .......@@........
    ......@@.........
    .................
    @@@@@@......@@@@@
    ..@@..........@..
    ..@@..........@..
    ..@@..........@..
    ..@@..........@..
    ..@@..........@..
    ..@@..........@..
    ..@@@.........@..
    ..@@@........@@..
    ...@@@.......@...
    ...@@@@@...@@@...
    .....@@@@@@@.....
    .................
    .................
    .................
    .................
    .................
    .................
    .................

    left-bearing: 2
    right-bearing: 1


0xf3:
u+00db:
    .................
    ........@........
    .......@@@.......
    ......@@.@@......
    .....@@...@@.....
    .................
    @@@@@@......@@@@@
    ..@@..........@..
    ..@@..........@..
    ..@@..........@..
    ..@@..........@..
    ..@@..........@..
    ..@@..........@..
    ..@@@.........@..
    ..@@@........@@..
    ...@@@.......@...
    ...@@@@@...@@@...
    .....@@@@@@@.....
    .................
    .................
    .................
    .................
    .................
    .................
    .................

    left-bearing: 2
    right-bearing: 1


0xf4:
u+00d9:
    .................
    ......@@.........
    .......@@........
    ........@@.......
    .........@@......
    .................
    @@@@@@......@@@@@
    ..@@..........@..
    ..@@..........@..
    ..@@..........@..
    ..@@..........@..
    ..@@..........@..
    ..@@..........@..
    ..@@@.........@..
    ..@@@........@@..
    ...@@@.......@...
    ...@@@@@...@@@...
    .....@@@@@@@.....
    .................
    .................
    .................
    .................
    .................
    .................
    .................

    left-bearing: 2
    right-bearing: 1


0xf5:
u+0131:
    .....
    .....
    .....
    .....
    .....
    .....
    ..@@.
    @@@@.
    ..@@.
    ..@@.
    ..@@.
    ..@@.
    ..@@.
    ..@@.
    ..@@.
    ..@@.
    ..@@.
    .@@@@
    .....
    .....
    .....
    .....
    .....
    .....
    .....

    right-bearing: 1


0xf6:
u+02c6:
    .......
    ...@...
    ..@@@..
    .@@.@@.
    @@...@@
    .......
    .......
    .......
    .......
    .......
    .......
    .......
    .......
    .......
    .......
    .......
    .......
    .......
    .......
    .......
    .......
    .......
    .......
    .......
    .......

    right-bearing: 1


0xf7:
u+02dc:
    ........
    ........
    ........
    .@@@..@@
    @@..@@@.
    ........
    ........
    ........
    ........
    ........
    ........
    ........
    ........
    ........
    ........
    ........
    ........
    ........
    ........
    ........
    ........
    ........
    ........
    ........
    ........



0xf8:
u+00af:
    ......
    ......
    ......
    ......
    @@@@@@
    ......
    ......
    ......
    ......
    ......
    ......
    ......
    ......
    ......
    ......
    ......
    ......
    ......
    ......
    ......
    ......
    ......
    ......
    ......
    ......

    left-bearing: 1
    right-bearing: 1


0xf9:
u+02d8:
    ......
    ......
    @....@
    @@..@@
    .@@@@.
    ......
    ......
    ......
    ......
    ......
    ......
    ......
    ......
    ......
    ......
    ......
    ......
    ......
    ......
    ......
    ......
    ......
    ......
    ......
    ......

    left-bearing: 1
    right-bearing: 1


0xfa:
u+02d9:
    ..
    ..
    ..
    @@
    @@
    ..
    ..
    ..
    ..
    ..
    ..
    ..
    ..
    ..
    ..
    ..
    ..
    ..
    ..
    ..
    ..
    ..
    ..
    ..
    ..

    left-bearing: 2
    right-bearing: 2


0xfb:
u+02da:
    .....
    .@@@.
    @...@
    @...@
    .@@@.
    .....
    .....
    .....
    .....
    .....
    .....
    .....
    .....
    .....
    .....
    .....
    .....
    .....
    .....
    .....
    .....
    .....
    .....
    .....
    .....

    left-bearing: 1
    right-bearing: 1


0xfc:
u+00b8:
    ....
    ....
    ....
    ....
    ....
    ....
    ....
    ....
    ....
    ....
    ....
    ....
    ....
    ....
    ....
    ....
    ....
    ....
    .@..
    .@@.
    ..@@
    ..@@
    @@@.
    ....
    ....

    left-bearing: 2
    right-bearing: 2


0xfd:
u+02dd:
    .........
    ...@@..@@
    ..@@..@@.
    .@@..@@..
    @@..@@...
    .........
    .........
    .........
    .........
    .........
    .........
    .........
    .........
    .........
    .........
    .........
    .........
    .........
    .........
    .........
    .........
    .........
    .........
    .........
    .........



0xfe:
u+02db:
    ....
    ....
    ....
    ....
    ....
    ....
    ....
    ....
    ....
    ....
    ....
    ....
    ....
    ....
    ....
    ....
    ....
    ....
    .@@.
    @@..
    @...
    @@.@
    .@@.
    ....
    ....

    left-bearing: 2
    right-bearing: 2


0xff:
u+02c7:
    .......
    @@...@@
    .@@.@@.
    ..@@@..
    ...@...
    .......
    .......
    .......
    .......
    .......
    .......
    .......
    .......
    .......
    .......
    .......
    .......
    .......
    .......
    .......
    .......
    .......
    .......
    .......
    .......

    right-bearing: 1


missing:
    ..........
    ..........
    ..........
    ..........
    .@@@@@@@@.
    .@......@.
    .@......@.
    .@......@.
    .@......@.
    .@......@.
    .@......@.
    .@......@.
    .@......@.
    .@......@.
    .@......@.
    .@......@.
    .@......@.
    .@@@@@@@@.
    ..........
    ..........
    ..........
    ..........
    ..........
    ..........
    ..........

    left-bearing: 1
    right-bearing: 1


